<?xml version="1.0" encoding="UTF-8"?>
<svg width="150px" height="100px" viewBox="0 0 150 100" version="1.1" xmlns="http://www.w3.org/2000/svg" xmlns:xlink="http://www.w3.org/1999/xlink">
    <!-- Generator: Sketch 59 (86127) - https://sketch.com -->
    <title>Icons / DevMobile / Black</title>
    <desc>Created with Sketch.</desc>
    <g id="Icons-/-DevMobile-/-Black" stroke="none" stroke-width="1" fill="none" fill-rule="evenodd">
        <g id="Group-2" transform="translate(15.555577, 11.000000)" fill="#000000" fill-rule="nonzero">
            <g id="Icons-/-_Res-/-Slash" transform="translate(41.444423, 0.000000)">
                <path d="M14.882147,3.44728543 L14.8470199,76.2770119 C14.8459549,78.4861507 16.6359519,80.2778752 18.8450907,80.2789412 C21.0542294,80.2800062 22.845954,78.4900092 22.8470199,76.2808704 L22.8821466,3.45114393 C22.8832116,1.24200518 21.0932145,-0.549719362 18.8840758,-0.550785331 C16.6749371,-0.551850349 14.8832125,1.23814669 14.882147,3.44728543 Z" id="Line-4" transform="translate(18.864583, 39.864078) rotate(22.000000) translate(-18.864583, -39.864078) "></path>
            </g>
            <g id="Group" transform="translate(0.000000, 11.000000)">
                <path d="M25.456463,0 L59.8267478,0 C61.483602,0 62.8267478,1.34314575 62.8267478,3 C62.8267478,4.59768088 61.5778278,5.90366088 60.0030205,5.99490731 L59.8267478,6 L25.456463,6 C24.6860227,6 23.9894576,6.44177967 23.6573065,7.12640277 L23.5918149,7.27675221 L6.13750283,52.2767522 C5.73806411,53.3065689 6.24908645,54.4652094 7.27890318,54.8646481 C7.45188101,54.9317417 7.63306845,54.9743303 7.81721395,54.9914313 L8.00215096,55 L38.6656816,55 C40.3225359,55 41.6656816,56.3431458 41.6656816,58 C41.6656816,59.5976809 40.4167617,60.9036609 38.8419544,60.9949073 L38.6656816,61 L8.00215096,61 C7.01263617,61 6.03170827,60.8164247 5.10915982,60.4585925 C1.06910959,58.8915637 -0.974810171,54.4034051 0.455409648,50.3452053 L0.543558449,50.1070089 L17.9978705,5.10700886 C19.1577963,2.11653524 21.9867247,0.116775884 25.1743082,0.00494512378 L25.456463,0 L59.8267478,0 L25.456463,0 Z M26.8733702,42.8026316 C28.871769,42.8026316 30.4917913,44.4226539 30.4917913,46.4210526 C30.4917913,48.4194514 28.871769,50.0394737 26.8733702,50.0394737 C24.8749715,50.0394737 23.2549492,48.4194514 23.2549492,46.4210526 C23.2549492,44.4226539 24.8749715,42.8026316 26.8733702,42.8026316 Z" id="Shape"></path>
            </g>
            <g id="Group-28-Copy-2" transform="translate(64.444423, 16.000000)">
                <path d="M14.5461561,2.27373675e-13 L51.4649418,2.27373675e-13 C54.3038561,2.27373675e-13 56.6052509,2.3013948 56.6052509,5.14030916 C56.6052509,5.71027633 56.5104606,6.27560265 56.3253841,6.81329494 L56.2253428,7.0797318 L46.1975981,31.6932871 C45.438267,33.5570998 43.6650594,34.7995219 41.6685138,34.8889965 L41.437197,34.8941736 L25.2028703,34.8941736 L7.25203835,45.1975848 C5.01596362,46.4810461 2.33936835,44.5358249 2.80788429,42.0521877 L2.84293556,41.8894756 L4.53735316,34.8941736 L3.4482568,34.8941736 C1.79140255,34.8941736 0.448256795,33.5510279 0.448256795,31.8941736 C0.448256795,30.2964927 1.69717676,28.9905127 3.27198401,28.8992663 L3.4482568,28.8941736 L8.35077289,28.8941736 C10.234547,28.8941736 11.6366248,30.6038488 11.3028711,32.429018 L11.266458,32.6004173 L10.3169865,36.5202537 L22.9096739,29.2923082 C23.2992361,29.0687074 23.7331772,28.9359152 24.1792144,28.9025379 L24.4030916,28.8941736 L40.8591422,28.8941736 L50.1863981,6 L14.5461561,6 C12.8893019,6 11.5461561,4.65685425 11.5461561,3 C11.5461561,1.40231912 12.7950761,0.0963391206 14.3698833,0.00509269341 L14.5461561,2.27373675e-13 L51.4649418,2.27373675e-13 L14.5461561,2.27373675e-13 Z M14.1034483,14.0344828 C16.0078784,14.0344828 17.5517241,15.5783284 17.5517241,17.4827586 C17.5517241,19.3871888 16.0078784,20.9310345 14.1034483,20.9310345 C12.1990181,20.9310345 10.6551724,19.3871888 10.6551724,17.4827586 C10.6551724,15.5783284 12.1990181,14.0344828 14.1034483,14.0344828 Z M25.137931,14.0344828 C27.0423612,14.0344828 28.5862069,15.5783284 28.5862069,17.4827586 C28.5862069,19.3871888 27.0423612,20.9310345 25.137931,20.9310345 C23.2335009,20.9310345 21.6896552,19.3871888 21.6896552,17.4827586 C21.6896552,15.5783284 23.2335009,14.0344828 25.137931,14.0344828 Z M36.1724138,14.0344828 C38.076844,14.0344828 39.6206897,15.5783284 39.6206897,17.4827586 C39.6206897,19.3871888 38.076844,20.9310345 36.1724138,20.9310345 C34.2679836,20.9310345 32.7241379,19.3871888 32.7241379,17.4827586 C32.7241379,15.5783284 34.2679836,14.0344828 36.1724138,14.0344828 Z" id="Shape"></path>
            </g>
        </g>
    </g>
</svg>