<?xml version="1.0" encoding="UTF-8"?>
<svg width="150px" height="100px" viewBox="0 0 150 100" version="1.1" xmlns="http://www.w3.org/2000/svg" xmlns:xlink="http://www.w3.org/1999/xlink">
    <!-- Generator: Sketch 59 (86127) - https://sketch.com -->
    <title>Icons / DevOps / Black</title>
    <desc>Created with Sketch.</desc>
    <g id="Icons-/-DevOps-/-Black" stroke="none" stroke-width="1" fill="none" fill-rule="evenodd">
        <g id="Icons-/-_Res-/-Slash" transform="translate(57.000000, 11.000000)" fill="#000000" fill-rule="nonzero">
            <path d="M14.882147,3.44728543 L14.8470199,76.2770119 C14.8459549,78.4861507 16.6359519,80.2778752 18.8450907,80.2789412 C21.0542294,80.2800062 22.845954,78.4900092 22.8470199,76.2808704 L22.8821466,3.45114393 C22.8832116,1.24200518 21.0932145,-0.549719362 18.8840758,-0.550785331 C16.6749371,-0.551850349 14.8832125,1.23814669 14.882147,3.44728543 Z" id="Line-4" transform="translate(18.864583, 39.864078) rotate(22.000000) translate(-18.864583, -39.864078) "></path>
        </g>
        <g id="Group-11-Copy-2" transform="translate(21.000000, 25.000000)" fill="#000000">
            <path d="M35,42.8571429 C36.9724455,42.8571429 38.5714286,44.4561259 38.5714286,46.4285714 C38.5714286,48.401017 36.9724455,50 35,50 C33.0275545,50 31.4285714,48.401017 31.4285714,46.4285714 C31.4285714,44.4561259 33.0275545,42.8571429 35,42.8571429 Z M23.5714286,42.8571429 C25.5438741,42.8571429 27.1428571,44.4561259 27.1428571,46.4285714 C27.1428571,48.401017 25.5438741,50 23.5714286,50 L3.57142857,50 C1.59898304,50 -1.95399252e-14,48.401017 -1.95399252e-14,46.4285714 C-1.95399252e-14,44.4561259 1.59898304,42.8571429 3.57142857,42.8571429 L23.5714286,42.8571429 Z M40.7142857,28.5714286 C42.6867312,28.5714286 44.2857143,30.1704116 44.2857143,32.1428571 C44.2857143,34.1153027 42.6867312,35.7142857 40.7142857,35.7142857 L29.2857143,35.7142857 C27.3132688,35.7142857 25.7142857,34.1153027 25.7142857,32.1428571 C25.7142857,30.1704116 27.3132688,28.5714286 29.2857143,28.5714286 L40.7142857,28.5714286 Z M17.8571429,28.5714286 C19.8295884,28.5714286 21.4285714,30.1704116 21.4285714,32.1428571 C21.4285714,34.1153027 19.8295884,35.7142857 17.8571429,35.7142857 L3.57142857,35.7142857 C1.59898304,35.7142857 -4.4408921e-14,34.1153027 -4.4408921e-14,32.1428571 C-4.4408921e-14,30.1704116 1.59898304,28.5714286 3.57142857,28.5714286 L17.8571429,28.5714286 Z M46.4285714,14.2857143 C48.401017,14.2857143 50,15.8846973 50,17.8571429 C50,19.8295884 48.401017,21.4285714 46.4285714,21.4285714 L3.57142857,21.4285714 C1.59898304,21.4285714 -1.77635684e-15,19.8295884 -1.77635684e-15,17.8571429 C-1.77635684e-15,15.8846973 1.59898304,14.2857143 3.57142857,14.2857143 L46.4285714,14.2857143 Z M3.57142857,-1.33226763e-14 C5.54387411,-1.33226763e-14 7.14285714,1.59898304 7.14285714,3.57142857 C7.14285714,5.54387411 5.54387411,7.14285714 3.57142857,7.14285714 C1.59898304,7.14285714 -1.42108547e-14,5.54387411 -1.42108547e-14,3.57142857 C-1.42108547e-14,1.59898304 1.59898304,-1.33226763e-14 3.57142857,-1.33226763e-14 Z M50.7142857,-1.33226763e-14 C52.6867312,-1.33226763e-14 54.2857143,1.59898304 54.2857143,3.57142857 C54.2857143,5.54387411 52.6867312,7.14285714 50.7142857,7.14285714 L15,7.14285714 C13.0275545,7.14285714 11.4285714,5.54387411 11.4285714,3.57142857 C11.4285714,1.59898304 13.0275545,-1.33226763e-14 15,-1.33226763e-14 L50.7142857,-1.33226763e-14 Z" id="Shape"></path>
        </g>
        <path d="M95.2656769,26 C106.17973,26.4500673 115.152308,34.3891858 117.211977,44.8350422 C125.320795,45.4291084 131.714286,52.1201695 131.714286,60.3745625 C131.714286,64.5207769 130.071364,68.497173 127.146944,71.4289893 C124.339501,74.2435329 120.571802,75.874061 116.615827,76 L79.1070071,75.9650028 C77.3910544,75.9650028 76,74.6000284 76,72.8633521 C76,71.1266757 77.3910544,69.747408 79.1070071,69.747408 L116.120406,69.7545547 C121.177819,69.7545547 125.298037,65.731793 125.471076,60.703865 L125.476734,60.3745625 C125.476734,55.3043578 121.464121,51.1737193 116.448877,51.0002427 L111.442242,50.9945704 L111.442242,49.4312384 C111.442242,40.2381564 104.246806,32.7299091 95.1940501,32.2581137 C95.1940501,32.2581137 95.198351,32.2574178 95.2069527,32.2560261 C93.4910001,32.2560261 92.0999457,30.8624651 92.0999457,29.1257887 C92.0999457,27.4729553 93.3599281,26.1315346 94.9608171,26.0045546 L95.2656769,26 Z" id="Path" fill="#000000" fill-rule="nonzero"></path>
    </g>
</svg>