<?xml version="1.0" encoding="UTF-8"?>
<svg width="150px" height="100px" viewBox="0 0 150 100" version="1.1" xmlns="http://www.w3.org/2000/svg" xmlns:xlink="http://www.w3.org/1999/xlink">
    <!-- Generator: Sketch 59 (86127) - https://sketch.com -->
    <title>Icons / DevWeb / Black</title>
    <desc>Created with Sketch.</desc>
    <g id="Icons-/-DevWeb-/-Black" stroke="none" stroke-width="1" fill="none" fill-rule="evenodd">
        <g id="Icons-/-_Res-/-Slash" transform="translate(57.000000, 11.000000)" fill="#000000" fill-rule="nonzero">
            <path d="M14.882147,3.44728543 L14.8470199,76.2770119 C14.8459549,78.4861507 16.6359519,80.2778752 18.8450907,80.2789412 C21.0542294,80.2800062 22.845954,78.4900092 22.8470199,76.2808704 L22.8821466,3.45114393 C22.8832116,1.24200518 21.0932145,-0.549719362 18.8840758,-0.550785331 C16.6749371,-0.551850349 14.8832125,1.23814669 14.882147,3.44728543 Z" id="Line-4" transform="translate(18.864583, 39.864078) rotate(22.000000) translate(-18.864583, -39.864078) "></path>
        </g>
        <path d="M36.6933708,49.9887967 L55.744,61.376 C56.3200029,61.7120017 56.7279988,62.1319975 56.968,62.636 C57.2080012,63.1400025 57.328,63.6559974 57.328,64.184 C57.328,65.3360058 56.932004,66.3559956 56.14,67.244 C55.347996,68.1320044 54.5440041,68.576 53.728,68.576 C53.1999974,68.576 52.636003,68.4200016 52.036,68.108 C51.435997,67.7959984 50.8000034,67.4480019 50.128,67.064 L26.728,53.312 C26.1519971,52.9279981 25.7200014,52.436003 25.432,51.836 C25.1439986,51.235997 25,50.6240031 25,50 C25,49.3279966 25.1439986,48.692003 25.432,48.092 C25.7200014,47.491997 26.1519971,47.0240017 26.728,46.688 L50.128,33.224 C50.7520031,32.8399981 51.3399972,32.5400011 51.892,32.324 C52.4440028,32.1079989 52.9599976,32 53.44,32 C54.4000048,32 55.2999958,32.4679953 56.14,33.404 C56.9800042,34.3400047 57.4,35.311995 57.4,36.32 C57.4,36.8000024 57.2680013,37.2679977 57.004,37.724 C56.7399987,38.1800023 56.3440026,38.5759983 55.816,38.912 L36.6933708,49.9887967 Z M113.306629,50.5872033 L94.256,39.2 C93.6799971,38.8639983 93.2720012,38.4440025 93.032,37.94 C92.7919988,37.4359975 92.672,36.9200026 92.672,36.392 C92.672,35.2399942 93.0799959,34.2200044 93.896,33.332 C94.7120041,32.4439956 95.5039962,32 96.272,32 C96.8000026,32 97.363997,32.1559984 97.964,32.468 C98.564003,32.7800016 99.1999966,33.1279981 99.872,33.512 L123.272,47.264 C123.848003,47.6000017 124.279999,48.067997 124.568,48.668 C124.856001,49.268003 125,49.9039966 125,50.576 C125,51.2480034 124.856001,51.883997 124.568,52.484 C124.279999,53.084003 123.848003,53.5519983 123.272,53.888 L99.872,67.352 C99.2479969,67.6880017 98.6720026,67.9759988 98.144,68.216 C97.6159974,68.4560012 97.0880026,68.576 96.56,68.576 C95.6,68.576 94.7000042,68.1080047 93.86,67.172 C93.0199958,66.2359953 92.6,65.264005 92.6,64.256 C92.6,63.7279974 92.7319987,63.2480022 92.996,62.816 C93.2600013,62.3839978 93.6559974,62 94.184,61.664 L113.306629,50.5872033 L113.306629,50.5872033 Z" id="&lt;&gt;" fill="#000000" fill-rule="nonzero"></path>
    </g>
</svg>