<?xml version="1.0" encoding="UTF-8"?>
<svg width="150px" height="100px" viewBox="0 0 150 100" version="1.1" xmlns="http://www.w3.org/2000/svg" xmlns:xlink="http://www.w3.org/1999/xlink">
    <!-- Generator: Sketch 59 (86127) - https://sketch.com -->
    <title>Icons / Maker / Black</title>
    <desc>Created with Sketch.</desc>
    <g id="Icons-/-Maker-/-Black" stroke="none" stroke-width="1" fill="none" fill-rule="evenodd">
        <g id="Line-5" transform="translate(16.000000, 11.000000)" fill="#000000" fill-rule="nonzero">
            <path d="M56.0351271,2.99807076 L56,75.8277973 C55.998935,78.036936 57.788932,79.8286605 59.9980708,79.8297265 C62.2072095,79.8307915 63.9989341,78.0407945 64,75.8316557 L64.0351267,3.00192926 C64.0361917,0.792790514 62.2461946,-0.998934031 60.0370559,-1 C57.8279171,-1.00106502 56.0361926,0.788932021 56.0351271,2.99807076 Z" id="Line-4" transform="translate(60.017563, 39.414863) rotate(22.000000) translate(-60.017563, -39.414863) "></path>
            <g id="interface-(1)" transform="translate(0.000000, 4.000000)">
                <path d="M34.5397559,0 C37.8391406,0 40.5234375,2.68429687 40.5234375,5.98368164 L40.5234375,7.36378906 C41.9261426,7.81193359 43.2889844,8.37763672 44.598252,9.05518555 L45.5762988,8.07713867 C47.9451172,5.70540039 51.7396191,5.7749707 54.0396289,8.07802734 L56.9228613,10.9611328 C59.2269336,13.262666 59.2932031,17.0558984 56.9220996,19.4244629 L55.9448145,20.401748 L56.6776215,22.126902 C57.1931337,23.3405063 57.0774451,24.7302053 56.368361,25.8418654 L55.2453103,27.6025179 C54.8623752,28.2028718 54.0652605,28.379118 53.4649097,27.996178 C53.1897982,27.8206952 52.991457,27.5474258 52.9098809,27.2314734 C52.9098809,27.2314734 52.9098809,27.2314734 52.9098809,27.2314734 C52.4178752,25.3249661 51.6591837,23.4972792 50.6550226,21.799261 C50.2419559,21.1006626 50.3543196,20.2109987 50.9282275,19.6370908 L52.7877981,17.7775202 C53.5916484,16.9746181 53.5706691,15.6874145 52.7885092,14.9062029 L50.0949824,12.212676 C49.3142448,11.4308717 48.0265672,11.407996 47.223665,12.2119649 L45.3635018,14.0722467 C44.7895939,14.6462731 43.8996929,14.7586367 43.2012131,14.3454515 C41.5030763,13.3411719 39.6753895,12.5824804 37.7690007,12.0904747 C36.9838776,11.887912 36.4353345,11.1798315 36.4353345,10.368988 L36.4353345,7.74361428 C36.4353345,6.6238894 35.5242172,5.71289063 34.4044924,5.71289063 L30.5958632,5.71289063 C29.4761383,5.71289063 28.565021,6.6238894 28.565021,7.74361428 L28.565021,10.368751 C28.565021,11.1795944 28.0164779,11.8876749 27.2313549,12.0902376 C25.3249661,12.5822433 23.4972792,13.3409349 21.7991424,14.3452144 C21.1003071,14.7582811 20.2107617,14.6459175 19.6368538,14.0720096 L17.7774017,12.212439 C16.9756848,11.4097739 15.6881257,11.4283827 14.9062029,12.2116093 L12.212439,14.9052546 C11.4322941,15.6844514 11.4062181,16.9720105 12.2117278,17.776572 L14.0720096,19.6368538 C14.6459175,20.2107617 14.7582811,21.1004256 14.3452144,21.7990239 C13.3409349,23.4970422 12.5823619,25.324729 12.0903561,27.2312363 C11.8876749,28.0163594 11.1795944,28.564784 10.3688695,28.564784 L7.7437328,28.564784 C6.62400792,28.5649025 5.71289063,29.4759013 5.71289063,30.5956262 L5.71289063,34.4043738 C5.71289063,35.5240987 6.62400792,36.4350975 7.7437328,36.4350975 L10.368751,36.4350975 C11.1795944,36.4350975 11.8875564,36.9836406 12.0902376,37.7686451 C12.5822433,39.6751524 13.3409349,41.5028393 14.3450959,43.2008576 C14.7581626,43.8994559 14.645799,44.7891198 14.0718911,45.3630277 L12.2123205,47.2225983 C11.4084701,48.0255004 11.4294494,49.312704 12.2116093,50.0939157 L14.9051361,52.7874425 C15.6858737,53.5692468 16.9735514,53.5921225 17.7764535,52.7881536 L19.6366167,50.9278719 C20.0595212,50.5050859 20.9393473,50.1463046 21.7990239,50.6547856 C23.4971607,51.6590651 25.3248476,52.4177567 27.2312363,52.9097624 C28.0163594,53.1123251 28.5649025,53.8204056 28.5649025,54.631249 L28.5649025,57.2563857 C28.5649025,58.3761106 29.4760198,59.2871094 30.5957447,59.2871094 L34.4043738,59.2871094 C35.5240987,59.2871094 36.435216,58.3761106 36.435216,57.2563857 L36.435216,54.631249 C36.435216,53.8204056 36.9837591,53.1123251 37.7688822,52.9097624 C39.675271,52.4177567 41.5029578,51.6590651 43.2010946,50.6547856 C43.8998115,50.2416004 44.7893569,50.353964 45.3633833,50.9279904 C45.9171875,51.4819191 46.0844795,52.3140927 45.7877602,53.0390022 L45.3866213,54.0190174 C44.8820243,55.2517892 43.9063799,56.2322544 42.6761102,56.7429216 L40.5234375,57.6364648 L40.5234375,57.6364648 L40.5234375,59.0165723 C40.5234375,62.3157031 37.8391406,65 34.5396289,65 L30.4602441,65 C27.1608594,65 24.4764355,62.3157031 24.4764355,59.0163184 L24.4764355,57.6362109 C23.0737305,57.1880664 21.7108887,56.6223633 20.4016211,55.9448145 L19.4235742,56.9228613 C17.0547559,59.2945996 13.2602539,59.2250293 10.9602441,56.9219727 L8.07701172,54.0388672 C5.77293945,51.737334 5.70666992,47.9441016 8.07777344,45.5755371 L9.05505859,44.598252 C8.37750977,43.2889844 7.81193359,41.9263965 7.36366211,40.5234375 L5.98368164,40.5234375 C2.68442383,40.5234375 0,37.8391406 0,34.5397559 L0,30.4602441 C0,27.1608594 2.68442383,24.4765625 5.98380859,24.4765625 L7.36378906,24.4765625 C7.81206055,23.0737305 8.37763672,21.7110156 9.05518555,20.401748 L8.07713867,19.4238281 C5.70743164,17.0566602 5.7728125,13.2630469 8.07790039,10.960498 L10.9613867,8.07713867 C13.2667285,5.76862305 17.0603418,5.71098633 19.4245898,8.07790039 L20.401748,9.05505859 C21.7110156,8.37763672 23.0738574,7.81193359 24.4765625,7.36366211 L24.4765625,5.98368164 C24.4765625,2.68429688 27.1608594,0 30.4603711,0 L34.5397559,0 Z M32.5,18.3574219 C40.2983496,18.3574219 46.6425781,24.7017773 46.6425781,32.5 C46.6425781,40.2982227 40.2983496,46.6425781 32.5,46.6425781 C24.7016504,46.6425781 18.3574219,40.2982227 18.3574219,32.5 C18.3574219,24.7017773 24.7016504,18.3574219 32.5,18.3574219 Z M32.5104551,23.7058824 C27.6555012,23.7058824 23.7058824,27.6556093 23.7058824,32.5104551 C23.7058824,37.3653008 27.6556093,41.3150278 32.5104551,41.3150278 C37.3653008,41.3150278 41.3150278,37.3653008 41.3150278,32.5104551 C41.3150278,27.6556093 37.3654089,23.7058824 32.5104551,23.7058824 Z" id="Shape"></path>
            </g>
            <g id="Group-54-Copy" transform="translate(62.000000, 5.000000)">
                <path d="M2,45 L16.1883005,45 C17.2426623,45 18.1064656,45.8158778 18.1828148,46.8507377 L18.1883005,47 L18.1889513,55.2318206 C21.1861108,56.0238466 23.3956642,58.7538889 23.3956642,62 C23.3956642,65.8659932 20.2616575,69 16.3956642,69 C12.529671,69 9.39566425,65.8659932 9.39566425,62 C9.39566425,58.905432 11.4037294,56.2798728 14.1879086,55.3552734 L14.1883005,49 L2,49 C0.8954305,49 4.54747351e-13,48.1045695 4.54747351e-13,47 C4.54747351e-13,45.9456382 0.815877791,45.0818349 1.85073766,45.0054857 L2,45 L16.1883005,45 L2,45 Z M16.3956642,59 C14.73881,59 13.3956642,60.3431458 13.3956642,62 C13.3956642,63.6568542 14.73881,65 16.3956642,65 C18.0525185,65 19.3956642,63.6568542 19.3956642,62 C19.3956642,60.3431458 18.0525185,59 16.3956642,59 Z M6.32785501,36 L19.7926363,36 C20.1264782,36 20.4540938,36.0835514 20.7460293,36.2418629 L20.8888874,36.3272079 L32.993667,44.2591118 C34.1286972,43.4655442 35.5099818,43 37,43 C40.8659932,43 44,46.1340068 44,50 C44,53.8659932 40.8659932,57 37,57 C33.1340068,57 30,53.8659932 30,50 C30,49.0835061 30.1761314,48.20815 30.4963919,47.4059339 L19.1956783,40 L6.32785501,40 C5.22328551,40 4.32785501,39.1045695 4.32785501,38 C4.32785501,36.9456382 5.1437328,36.0818349 6.17859266,36.0054857 L6.32785501,36 L19.7926363,36 L6.32785501,36 Z M37,47 C35.3431458,47 34,48.3431458 34,50 C34,51.6568542 35.3431458,53 37,53 C38.6568542,53 40,51.6568542 40,50 C40,48.3431458 38.6568542,47 37,47 Z M50,23 C53.8659932,23 57,26.1340068 57,30 C57,33.8659932 53.8659932,37 50,37 C46.8293607,37 44.1510722,34.8919961 43.2901893,32.0010432 L11.1155255,32 C10.010956,32 9.11552547,31.1045695 9.11552547,30 C9.11552547,28.9456382 9.93140326,28.0818349 10.9662631,28.0054857 L11.1155255,28 L43.2898925,27.9999537 C44.1504565,25.1084885 46.8289963,23 50,23 Z M50,27 C48.3431458,27 47,28.3431458 47,30 C47,31.6568542 48.3431458,33 50,33 C51.6568542,33 53,31.6568542 53,30 C53,28.3431458 51.6568542,27 50,27 Z M37,0 C40.8659932,0 44,3.13400675 44,7 C44,10.5021677 41.4281145,13.4036394 38.0700259,13.9187327 L33.5814906,22.8948653 C33.2427066,23.5724334 32.5501804,24.0004381 31.7926363,24.0004381 L14.2540878,24.0004381 C13.1495183,24.0004381 12.2540878,23.1050076 12.2540878,22.0004381 C12.2540878,20.8958686 13.1495183,20.0004381 14.2540878,20.0004381 L30.5565683,20.0004381 L33.9143215,13.2849481 C31.5956536,12.1444097 30,9.75854727 30,7 C30,3.13400675 33.1340068,0 37,0 Z M37,4 C35.3431458,4 34,5.34314575 34,7 C34,8.65685425 35.3431458,10 37,10 C38.6568542,10 40,8.65685425 40,7 C40,5.34314575 38.6568542,4 37,4 Z" id="Shape"></path>
            </g>
        </g>
    </g>
</svg>