<?xml version="1.0" encoding="UTF-8"?>
<svg width="150px" height="100px" viewBox="0 0 150 100" version="1.1" xmlns="http://www.w3.org/2000/svg" xmlns:xlink="http://www.w3.org/1999/xlink">
    <!-- Generator: Sketch 59 (86127) - https://sketch.com -->
    <title>Icons / Webdesign / Black</title>
    <desc>Created with Sketch.</desc>
    <g id="Icons-/-Webdesign-/-Black" stroke="none" stroke-width="1" fill="none" fill-rule="evenodd">
        <g id="Group" transform="translate(21.000000, 11.000000)" fill="#000000">
            <path d="M34.6931242,13.5626148 L35.9502453,18.2542545 C36.5934834,20.654852 35.1688622,23.1223683 32.7682648,23.7656064 L11.7938754,29.3856771 C9.39327793,30.0289153 6.92576163,28.6042941 6.28252348,26.2036966 L6.0589362,25.3731212 L5.99168388,25.3942473 L4.61178984,25.7639888 L7.08905785,35.0092788 L22.6818605,30.8311999 C23.7002958,30.558311 24.7458304,31.1228197 25.0874195,32.102657 L25.1313502,32.2454135 L27.7448037,42.0001062 L33.0082048,42.0005824 C33.88052,37.9063797 35.0849572,32.2533631 36.6215163,25.0415328 C37.0818624,22.8808901 39.2065948,21.5025293 41.3672376,21.9628745 C43.5278793,22.4232253 44.9062401,24.5479576 44.4458949,26.7086005 C43.0776123,33.1306265 41.9915651,38.2279831 41.1877534,42.0006702 L41.2614721,42 C42.9183264,42 44.2614721,43.3431458 44.2614721,45 C44.2614721,46.5976809 43.0125521,47.9036609 41.4377449,47.9949073 L41.2614721,48 L17.2614721,48 C13.3954789,48 10.2614721,51.1340068 10.2614721,55 C10.2614721,58.7854517 13.2662555,61.8690987 17.0208224,61.995941 L17.2614721,62 L33.6307058,62 C35.2875601,62 36.6307058,63.3431458 36.6307058,65 C36.6307058,66.5976809 35.3817859,67.9036609 33.8069786,67.9949073 L33.6307058,68 L17.2614721,68 C10.0817704,68 4.26147211,62.1797017 4.26147211,55 C4.26147211,47.9228654 9.91666394,42.1665717 16.9546159,42.0035504 L17.2614721,42 L23.6028037,41.9991062 L21.785285,35.2125413 L6.19248237,39.3906202 C5.17404709,39.6635091 4.12851243,39.0990004 3.78692338,38.1191632 L3.74299263,37.9764066 L0.230448447,24.8674133 C-0.0424404661,23.848978 0.522068211,22.8034433 1.50190547,22.4618543 L1.64466201,22.4179235 L4.9564077,21.530544 C4.97951697,21.5243519 5.00264019,21.5185909 5.02576883,21.5132562 L5.0254024,21.5120569 C4.38216425,19.1114594 5.80678545,16.6439431 8.20738292,16.000705 L29.1817723,10.3806343 C31.5823698,9.73739612 34.0498861,11.1620173 34.6931242,13.5626148 Z M52.2542432,9.64942823 C50.703171,9.92292411 48.7837319,11.5625697 49.2061931,13.9584663 C49.7405111,16.9887345 47.6935233,19.8825676 44.6341179,20.4220233 C41.5747124,20.961479 38.6614239,18.9422765 38.1271059,15.9120083 C37.4146818,11.8716506 40.1439988,8.0132065 44.2232061,7.29393219 C46.9929779,6.80554669 50.1620127,7.71767834 52.2542432,9.64942823 Z" id="Combined-Shape" fill-rule="nonzero"></path>
            <g id="Icons-/-_Res-/-Slash" transform="translate(35.261472, 0.000000)" fill-rule="nonzero">
                <path d="M14.882147,3.44728543 L14.8470199,76.2770119 C14.8459549,78.4861507 16.6359519,80.2778752 18.8450907,80.2789412 C21.0542294,80.2800062 22.845954,78.4900092 22.8470199,76.2808704 L22.8821466,3.45114393 C22.8832116,1.24200518 21.0932145,-0.549719362 18.8840758,-0.550785331 C16.6749371,-0.551850349 14.8832125,1.23814669 14.882147,3.44728543 Z" id="Line-4" transform="translate(18.864583, 39.864078) rotate(22.000000) translate(-18.864583, -39.864078) "></path>
            </g>
            <g id="Group-36" transform="translate(52.261472, 8.000000)">
                <path d="M24.3356419,0 L45.5,0 C52.5771346,0 58.3334283,5.65519183 58.4964496,12.6931438 L58.5,13 L58.5,47 C58.5,54.0771346 52.8448082,59.8334283 45.8068562,59.9964496 L45.5,60 L32.9792939,59.9994576 C33.5220179,60.5530621 34.004511,61.174185 34.4130255,61.8550424 L34.5,62 C35.4380949,63.5634916 34.9311108,65.5914281 33.3676192,66.529523 C32.8545263,66.8373788 32.2674121,67 31.6690481,67 L13.3309519,67 C11.5076231,67 10.029523,65.5219 10.029523,63.6985711 C10.029523,63.1002071 10.1921443,62.5130929 10.5,62 L10.5869745,61.8550424 C10.995489,61.174185 11.4779821,60.5530621 12.0207061,59.9994576 L3,60 C1.34314575,60 0,58.6568542 0,57 C0,55.4023191 1.24891996,54.0963391 2.82372721,54.0050927 L3,54 L45.5,54 C49.2854517,54 52.3690987,50.9952166 52.495941,47.2406498 L52.5,47 L52.5,13 C52.5,9.21454828 49.4952166,6.13090132 45.7406498,6.00405902 L45.5,6 L24.3356419,6 C22.6787876,6 21.3356419,4.65685425 21.3356419,3 C21.3356419,1.40231912 22.5845618,0.0963391206 24.1593691,0.00509269341 L24.3356419,0 L45.5,0 L24.3356419,0 Z" id="Path"></path>
            </g>
        </g>
    </g>
</svg>