<?xml version="1.0" encoding="UTF-8"?>
<svg width="657px" height="670px" viewBox="0 0 657 670" version="1.1" xmlns="http://www.w3.org/2000/svg" xmlns:xlink="http://www.w3.org/1999/xlink">
    <!-- Generator: Sketch 59 (86127) - https://sketch.com -->
    <title>Charte Graphique / Logo / SMB</title>
    <desc>Created with Sketch.</desc>
    <g id="Charte-Graphique-/-Logo-/-SMB" stroke="none" stroke-width="1" fill="none" fill-rule="evenodd">
        <g id="Charte-Graphique-/-Ressource-/-Logo-/-SMB" transform="translate(64.000000, 108.000000)">
            <g id="Mixed">
                <g id="Mario" transform="translate(17.000000, 142.000000)" fill-rule="nonzero">
                    <polygon id="Shadow" fill="#000000" points="407.369581 28.2249221 476.523635 13.1624094 510.929511 45.5314621 510.929511 55.9330176 501.043922 112.854882 438.290407 129.218457 394.213878 90.3191698 386.202949 128.132093 350.283831 125.910292 350.460626 120.934427 333.925184 128.09836 310.370618 106.364715 312.648347 126.273099 268.61267 127.288137 266.42222 123.217758 232.440003 129.108906 228.811695 102.350141 199.492135 101.626201 191.243831 129.970373 170.557266 126.273099 134.857474 129.215709 126.484726 99.3364914 119.500049 79.18398 93.6237417 102.247645 74.2237722 76.5186078 50.8263275 126.220872 1 116.823024 0.892469751 106.364715 102.13153 36.7360108 167.445252 73.0551068 201.915001 15.0883974 236.23582 11.6563154 264.119285 72.4547191 301 9.80342527 353.684144 30.3029525"></polygon>
                    <g id="Group-2" transform="translate(7.000000, 3.785855)">
                        <path d="M427.357564,1.52259332 L467.436149,2.84872299 L499.557957,42.7799607 L490.422397,95.3831041 L432.220039,110.559921 L385.805501,69.5972495 L392.730845,23.4774067 L427.357564,1.52259332 Z M436.051081,39.9803536 L428.536346,56.7779961 L441.502947,65.4715128 L455.206287,60.4616896 L454.469548,44.1060904 L436.051081,39.9803536 Z" id="Combined-Shape" fill="#43B047"></path>
                        <polygon id="Path" fill="#049CD8" transform="translate(372.642436, 54.936149) scale(1, -1) translate(-372.642436, -54.936149) " points="347.298625 1.96463654 375.884086 0.196463654 397.986248 104.518664 351.129666 109.675835"></polygon>
                        <path d="M317.779961,-2.13162821e-14 L345.039293,19.891945 L347.544204,54.2239686 L332.220039,71.3163065 L359.479371,95.3339882 L327.504912,109.184676 L294.056974,80.5992141 L299.066798,109.037328 L265.176817,109.037328 L256.630648,4.7151277 L317.779961,-2.13162821e-14 Z M294.056974,30.5009823 L293.172888,51.4243615 L302.1611,52.6031434 L311.149312,39.6365422 L294.056974,30.5009823 Z" id="Combined-Shape" fill="#FBD000"></path>
                        <path d="M226.669941,1.66994106 L273.231827,103.192534 L228.732809,110.265226 L225.196464,84.1846758 L189.390963,83.3005894 L181.286837,111.149312 L138.408644,103.48723 L197.200393,4.61689587 L226.669941,1.66994106 Z M204.715128,40.2750491 L198.67387,55.3045187 L221.218075,55.8939096 L216.060904,40.7170923 L204.715128,40.2750491 Z" id="Combined-Shape" fill="#43B047"></path>
                        <polygon id="Path" fill="#E52521" points="0 99.6561886 52.6031434 2.25933202 83.6935167 2.25933202 94.0078585 31.7288802 112.278978 2.11198428 139.833006 1.52259332 170.039293 107.465619 130.697446 110.707269 123.182711 83.8899804 114.194499 57.956778 87.0825147 82.1218075 66.3064833 54.56778 41.4047151 107.465619"></polygon>
                    </g>
                    <g id="Group" transform="translate(1.000000, 0.000000)" fill="#000000">
                        <path d="M325.065916,2.84217094e-14 L352.692,20.16 L353.406351,0.0927154623 L408.936046,6.20447436 L406.429,18.037 L432.378258,1.58569493 L475.523635,3.01329931 L509.929511,45.7839075 L500.043922,102.705772 L437.290407,119.069346 L393.257,80.208 L385.202924,118.224809 L349.283687,116.003 L350.928,110.15 L332.925064,117.949147 L306.050717,94.9816428 L309.95409,117.139027 L231.439994,118.959733 L227.811695,92.2010309 L198.492135,91.4770912 L190.243864,119.821148 L176.384977,117.344646 L175.932,115.599 L133.857448,119.066504 L125.484726,89.1873813 L118.500049,69.0348698 L92.6237417,92.0985352 L73.2237722,66.3694977 L49.8263275,116.071762 L0,106.673914 L56.3384253,2.36103103 L92.6524753,2.36103103 L101.13153,26.5869006 L116.138464,2.26114367 L148.954416,1.55919816 L166.445,62.906 L200.914978,4.93928961 L235.235786,1.50720882 L263.12,62.307 L258.436883,5.1376604 L325.065916,2.84217094e-14 Z M230.346166,10.0360713 L205.727877,12.4979001 L169.462,73.485 L179.825,109.832 L184.571879,110.680875 L192.53186,83.3274856 L234.823301,84.3717187 L238.267694,109.774117 L273.519862,104.171124 L230.346166,10.0360713 Z M142.953664,9.68938648 L120.661562,10.1662229 L99.1262566,45.0742577 L86.9766272,10.361031 L61.1099307,10.361031 L12.2420691,100.841862 L45.2251719,107.062874 L71.6312635,50.9694603 L93.7833569,80.3484778 L122.131018,55.0820841 L133.122765,86.7959774 L139.779514,110.551432 L170.978321,107.980744 L142.953664,9.68938648 Z M434.578939,9.66288971 L404.11,28.981 L399.22,52.062 L396.205432,72.1402634 L439.39174,110.253894 L493.042941,96.2638344 L501.428471,47.9794119 L471.590733,10.8875447 L434.578939,9.66288971 Z M361.09505,8.98726551 L358.296,87.669 L372.97359,100.600938 L357.599,107.26 L357.555632,108.499377 L378.807318,109.813915 L399.278518,13.1898485 L361.09505,8.98726551 Z M322.736075,8.203398 L267.066483,12.495993 L272.892,83.614 L284.599,109.139027 L300.421574,109.139027 L294.305301,74.4201835 L334.326828,108.623603 L357.914,98.406 L357.928,98.007 L332.669438,75.7519561 L349.552138,56.9212516 L347.305758,26.1326262 L322.736075,8.203398 Z M125.45211,89.070984 L125.484726,89.1873813 L125.524312,89.3015966 L125.45211,89.070984 Z M351.016,67.272 L344.01271,75.0840549 L350.534,80.83 L351.016,67.272 Z M439.856,39.4641189 L464.448925,44.9729341 L465.455242,67.3131895 L447.086467,74.0286557 L429.629087,62.3242758 L439.856,39.4641189 Z M444.488231,48.6999863 L439.685673,59.4351143 L448.161496,65.1177679 L457.1994,61.8135877 L456.732241,51.4426446 L444.488231,48.6999863 Z M208.175837,40.2700643 L225.084743,40.9288529 L232.97348,64.1442792 L198.937021,63.2544371 L208.175837,40.2700643 Z M296.450267,28.0747688 L323.115656,42.3269592 L310.180151,60.9880153 L295.142895,59.0159161 L296.450267,28.0747688 Z M213.496487,48.4834319 L210.652789,55.5579982 L221.704738,55.846938 L219.279133,48.7087298 L213.496487,48.4834319 Z M303.905751,41.1305938 L303.44495,52.0362049 L306.384119,52.4216696 L311.425038,45.1495233 L303.905751,41.1305938 Z" id="Shape"></path>
                    </g>
                </g>
                <g id="Birthday" transform="translate(13.000000, 282.000000)" fill-rule="nonzero">
                    <path d="M515,20.204174 L515,79.8828051 C515,93.201469 507.574339,105.261099 496.010017,111.465383 L496.010017,172.324374 L375.191987,172.115693 L369.917319,162.759394 C363.977876,168.78659 354.94219,172.228881 342.424875,172.228881 L77.6126878,172.024374 C70.9460331,160.006275 67.6127063,153.339608 67.6127075,152.024374 C67.6127123,146.892684 75.069814,155.180974 73.3834849,157.302741 C65.9690145,166.631745 54.6285496,172.228881 38.793823,172.228881 L10,172.228881 L0,152.324374 L0,5.68434189e-14 L505,0.204174 L515,20.204174 Z" id="Shadow" fill="#000000"></path>
                    <path d="M28.693823,149.728881 C63.1262104,149.728881 68.1345576,121.765609 68.1345576,121.765609 L68.1320534,89.355994 C68.0943865,88.5555714 67.5293823,80.5571786 59.9959933,76.7904841 L60.3612039,76.484432 C61.9186365,75.1358488 67.9258765,69.475051 67.9258765,62.3914858 L67.9295275,29.0088773 C67.8638982,24.9651503 66.0978297,2.5 34.9542571,2.5 L2.4,2.5 L2.4,149.728881 L28.4851419,149.728881 L28.4851419,31.9240401 L40.449527,31.9240401 L40.449527,61.7654424 L28.693823,61.7654424 L28.693823,90.880801 L40.449527,90.880801 L40.449527,119.678798 L28.693823,119.678798 L28.693823,149.728881 Z M70.0126878,149.524374 L98.1846411,149.524374 L98.1846411,2.656372 L70.0126878,2.656372 L70.0126878,149.524374 Z M100.271452,2.695492 L100.271452,149.724373 L126.356594,149.724373 L126.356594,32.1195321 L139.503506,32.1195321 L139.503506,61.9609344 L126.773957,61.9609344 L126.773957,90.667612 L139.503506,90.667612 L139.503506,149.724373 L166.00601,149.724373 L166.002019,89.35146 C165.946014,88.5505418 165.202588,80.7422366 157.867446,76.777295 L158.325626,76.3917178 C159.985745,74.938382 165.588648,69.5198289 165.588648,62.5869778 L165.592192,28.7116126 C165.658201,27.239002 166.28773,2.695492 134.912521,2.695492 L100.271452,2.695492 Z M230.697162,2.71285476 L165.797329,2.71285476 L165.797329,30.6761269 L184.161269,30.6761269 L184.161269,149.624374 L212.124541,149.624374 L212.124541,30.6761269 L230.697162,30.6761269 L230.697162,2.71285476 Z M230.905843,2.71285476 L230.905843,149.415693 L256.990985,149.415693 L256.990985,91.1936561 L270.76394,91.1936561 L270.76394,149.415693 L297.683806,149.415693 L297.683806,2.71285476 L270.972621,2.71285476 L270.972621,62.3956594 L256.782304,62.3956594 L256.782304,2.71285476 L230.905843,2.71285476 Z M365.292347,30.1668314 C365.215609,27.2239566 363.752254,2.7 336.289816,2.7 L299.770618,2.7 L299.770618,149.728881 L332.324875,149.728881 C366.129132,149.728881 365.572475,123.418239 365.508652,121.8396 L365.292347,30.1668314 Z M339.002671,119.265609 L325.85576,119.27429 L325.85576,31.5108514 L339.002671,31.5108514 L339.002671,119.265609 Z M434.36995,35.9889816 C434.36995,17.6250417 419.344908,2.6 400.980968,2.6 C382.408347,2.6 367.591987,17.6250417 367.591987,35.9889816 L367.591987,149.615693 L393.677129,149.615693 L393.677129,119.565609 L407.450083,119.565609 L407.450083,149.615693 L434.36995,149.615693 L434.36995,35.9889816 Z M407.658765,90.3589316 L393.468447,90.3589316 L393.468447,31.5108514 L407.658765,31.5108514 L407.658765,90.3589316 Z M476.523539,2.704174 L502.4,2.704174 L502.4,59.8828051 C502.4,73.0297166 494.678798,84.507179 483.410017,89.9328885 L483.410017,149.824374 L455.446745,149.824374 L455.446745,90.3502508 C443.760601,85.1332224 435.622037,73.4470788 435.622037,59.8828051 L435.622037,2.704174 L462.124541,2.704174 L462.124541,61.7609353 L476.523539,61.7609353 L476.523539,2.704174 Z" id="BIRTHDAY" fill="#FFFFFF"></path>
                    <path d="M35.0542571,2.84217094e-14 C49.637424,2.84217094e-14 59.4992355,4.70576115 65.2351723,12.7915729 C66.1648641,14.102137 66.9528665,15.4432046 67.6137855,16.7961462 L67.6126878,0.156372 L100.784641,0.156372 L100.784,0.195 L135.012521,0.195492 C148.83998,0.195492 158.109313,4.73389202 163.397459,12.4715285 L163.397329,0.212854758 L259.382304,0.212854758 L259.382304,59.8956594 L268.572621,59.8956594 L268.572621,0.212854758 L297.37,0.212 L297.370618,0.2 L336.389816,0.2 C349.404566,0.2 358.221166,5.36857966 363.317672,14.0658931 C365.156789,17.2043932 366.391144,20.6140056 367.135525,24.1134693 L367.157997,24.227536 C372.01391,10.1859946 385.330613,0.1 401.080968,0.1 C415.115862,0.1 427.331638,8.257166 433.223086,20.0662859 L433.222037,0.204174 L464.724541,0.204174 L464.724541,59.2609353 L474.123539,59.2609353 L474.123539,0.204174 L505,0.204174 L505,59.8828051 C505,73.201469 497.574339,85.2610987 486.010017,91.4653833 L486.010017,152.324374 L453.046745,152.324374 L453.046745,91.9314239 C445.996902,88.3935477 440.395703,82.6965544 436.969774,75.8223644 L436.96995,152.115693 L405.050083,152.115693 L405.050083,122.065609 L396.277129,122.065609 L396.277129,152.115693 L365.191987,152.115693 L365.193046,135.177109 C364.793497,136.020177 364.349678,136.85073 363.859155,137.665582 C358.354446,146.809963 348.130084,152.228881 332.424875,152.228881 L297.370618,152.228881 L297.37,151.915 L268.36394,151.915693 L268.36394,93.6936561 L259.590985,93.6936561 L259.590985,151.915693 L228.505843,151.915693 L228.505,33.176 L214.724541,33.1761269 L214.724541,152.124374 L181.761269,152.124374 L181.761269,33.1761269 L168.191,33.176 L168.188648,62.5869778 C168.188648,68.0221512 165.583431,72.7108051 161.974175,76.4589062 C164.245006,78.3112998 165.914828,80.6316326 167.056423,83.2525527 C167.619635,84.5455969 168.019583,85.8381576 168.284524,87.0879984 C168.462592,87.928017 168.558536,88.6423076 168.595929,89.1770715 L168.602019,89.3512947 L168.606175,152.224373 L137.103506,152.224373 L137.103506,93.167612 L128.956594,93.167612 L128.956594,152.224373 L97.8714524,152.224373 L97.871,152.024 L67.6126878,152.024374 L67.6127075,130.710751 C66.4697635,132.963262 65.069814,135.180974 63.3834849,137.302741 C56.3316685,146.175448 45.728519,151.672423 31.0851419,152.188928 L26.293823,152.228881 L0,152.228881 L0,2.84217094e-14 L35.0542571,2.84217094e-14 Z M31.0851419,152.188928 L31.0851419,152.228881 L28.793823,152.228881 C29.3101581,152.228881 29.8217146,152.22293 30.3285122,152.211092 L31.0851419,152.188928 Z M459.724541,5.204174 L438.222037,5.204174 L438.222037,59.8828051 C438.222037,72.1591836 445.497025,83.1259566 456.565872,88.0674061 L458.046745,88.7285101 L458.046745,147.324374 L481.010017,147.324374 L481.010017,88.3619026 L482.425478,87.6803843 C493.083366,82.5488083 500,71.7956044 500,59.8828051 L500,5.204174 L479.123539,5.204174 L479.123539,64.2609353 L459.724541,64.2609353 L459.724541,5.204174 Z M35.0542571,5 L5,5 L5,147.228881 L26.0851419,147.228881 L26.0851419,29.4240401 L43.049527,29.4240401 L43.049527,64.2654424 L31.293823,64.2654424 L31.293823,88.380801 L43.049527,88.380801 L43.049527,122.178798 L31.293823,122.178798 L31.293823,147.177508 C44.2517397,146.636774 53.3778475,141.855969 59.4691862,134.191749 C61.731598,131.345147 63.4076103,128.28956 64.5804089,125.238006 C64.9302191,124.32782 65.2117179,123.476939 65.4317983,122.702744 L65.6052281,122.060026 C65.6156547,122.019163 65.6255941,121.979723 65.6350554,121.941729 L65.7345385,121.518587 L65.7320584,89.4207074 L65.7069599,89.1104287 C65.6778644,88.8230836 65.6274008,88.4658045 65.5486833,88.0537036 C65.3680609,87.1081114 65.0823399,86.1282952 64.6725392,85.1597814 C63.5583715,82.5265821 61.7278876,80.4015163 58.9779593,79.0265521 L55.5692436,77.3221943 L58.8247035,74.5944937 C60.1082233,73.4830921 61.5321026,71.9703199 62.7670448,70.1728775 C64.5270063,67.6112763 65.5258765,64.9795945 65.5258765,62.3912124 L65.5298567,29.0494468 C65.4630343,24.9322086 64.2567647,20.0540743 61.1570698,15.6845091 C56.394907,8.97140313 48.0720815,5 35.0542571,5 Z M336.389816,5.2 L302.370618,5.2 L302.370618,147.228881 L332.424875,147.228881 C346.425157,147.228881 355.002954,142.682644 359.575432,135.086878 C361.203089,132.383026 362.220151,129.435145 362.74122,126.43543 C362.930895,125.343499 363.042241,124.310789 363.090902,123.363021 C363.122582,122.746002 363.123739,122.263293 363.108659,121.845499 L362.893197,30.2319988 C362.858992,28.9202519 362.67289,27.1656195 362.244942,25.153758 C361.605305,22.1467095 360.550745,19.2337394 359.003767,16.5937822 C354.795244,9.41183374 347.610668,5.2 336.389816,5.2 Z M135.012521,5.195492 L102.871452,5.195492 L102.871452,147.224373 L123.956594,147.224373 L123.956594,29.6195321 L142.103506,29.6195321 L142.103506,64.4609344 L129.373957,64.4609344 L129.373957,88.167612 L142.103506,88.167612 L142.103506,147.224373 L163.605845,147.224373 L163.602025,89.4476084 C163.575433,89.1351075 163.510796,88.6795416 163.393214,88.1248601 C163.195084,87.1901977 162.894012,86.2171871 162.472394,85.2492198 C161.323476,82.6114876 159.48522,80.4395706 156.778653,78.9765613 L153.547081,77.2297657 L156.778895,74.5106869 C160.331828,71.400305 163.188648,67.1318606 163.188648,62.5867163 L163.192192,28.7113511 L163.202722,28.309609 L163.20259,27.9498845 C163.200131,27.7531651 163.193816,27.5315804 163.182447,27.2870218 C163.141635,26.4090671 163.043372,25.4520673 162.873124,24.440092 C162.405593,21.6610321 161.480922,18.9308162 159.993743,16.4286243 C155.817285,9.40169696 147.940321,5.195492 135.012521,5.195492 Z M228.297162,5.21285476 L168.397329,5.21285476 L168.397329,28.1761269 L186.761269,28.1761269 L186.761269,147.124374 L209.724541,147.124374 L209.724541,28.1761269 L228.297162,28.1761269 L228.297162,5.21285476 Z M401.080968,5.1 C383.963441,5.1 370.191987,18.9310714 370.191987,35.9889816 L370.191987,147.115693 L391.277129,147.115693 L391.277129,117.065609 L410.050083,117.065609 L410.050083,147.115693 L431.96995,147.115693 L431.96995,35.9889816 C431.96995,19.0057536 418.064196,5.1 401.080968,5.1 Z M95.7846411,5.156372 L72.6126878,5.156372 L72.6126878,147.024374 L95.7846411,147.024374 L95.7846411,5.156372 Z M254.382304,5.21285476 L233.505843,5.21285476 L233.505843,146.915693 L254.590985,146.915693 L254.590985,88.6936561 L273.36394,88.6936561 L273.36394,146.915693 L295.283806,146.915693 L295.283806,5.21285476 L273.572621,5.21285476 L273.572621,64.8956594 L254.382304,64.8956594 L254.382304,5.21285476 Z M341.602671,29.0108514 L341.602671,121.763959 L323.45576,121.775941 L323.45576,29.0108514 L341.602671,29.0108514 Z M38.049527,93.380801 L31.0851419,93.380801 L31.0851419,117.178798 L38.049527,117.178798 L38.049527,93.380801 Z M336.602671,34.0108514 L328.45576,34.0108514 L328.45576,116.772639 L336.602671,116.767259 L336.602671,34.0108514 Z M410.258765,29.0108514 L410.258765,92.8589316 L391.068447,92.8589316 L391.068447,29.0108514 L410.258765,29.0108514 Z M405.258765,34.0108514 L396.068447,34.0108514 L396.068447,87.8589316 L405.258765,87.8589316 L405.258765,34.0108514 Z M66.88811,73.0042768 C66.0218026,74.265176 65.0890415,75.4006054 64.1458669,76.4033683 C65.5192909,77.4807446 66.6699816,78.735862 67.6136203,80.1315539 L67.6133806,71.889203 C67.3834922,72.2636813 67.1415467,72.635403 66.88811,73.0042768 Z M137.103506,34.6195321 L128.956594,34.6195321 L128.956594,59.4609344 L137.103506,59.4609344 L137.103506,34.6195321 Z M38.049527,34.4240401 L31.0851419,34.4240401 L31.0851419,59.2654424 L38.049527,59.2654424 L38.049527,34.4240401 Z" id="BIRTHDAY-Copy" fill="#000000"></path>
                </g>
                <g id="Super" transform="translate(180.000000, 14.000000)" fill-rule="nonzero">
                    <path d="M4.40806045,35.2644836 L8.81612091,35.2644836 L8.81612091,26.4483627 L13.2241814,26.4483627 L13.2241814,17.6322418 L17.6322418,17.6322418 L17.6322418,13.2241814 L53.9546599,13.2241814 L53.9546599,17.6322418 L58.3627204,17.6322418 L58.3627204,26.4483627 L61.8891688,26.4483627 L61.8891688,34.3828715 L67.1788413,34.3828715 L67.1788413,49.5465995 L36.3224181,49.5465995 L36.3224181,52.8967254 L40.7304786,52.8967254 L40.7304786,57.3047859 L49.5465995,57.3047859 L49.5465995,61.7128463 L58.3627204,61.7128463 L58.3627204,66.1209068 L62.7707809,66.1209068 L62.7707809,74.9370277 L67.1788413,74.9370277 L67.1788413,98.0352645 L62.7707809,98.0352645 L62.7707809,106.851385 L58.3627204,106.851385 L58.3627204,115.667506 L53.9546599,115.667506 L53.9546599,120.075567 L17.6322418,120.075567 L17.6322418,115.667506 L13.2241814,115.667506 L13.2241814,106.851385 L8.81612091,106.851385 L8.81612091,98.0352645 L4.40806045,98.0352645 L4.40806045,83.7531486 L39.6725441,83.7531486 L39.6725441,80.4030227 L30.8564232,80.4030227 L30.8564232,75.9949622 L22.0403023,75.9949622 L22.0403023,71.5869018 L13.2241814,71.5869018 L13.2241814,67.1788413 L8.81612091,67.1788413 L8.81612091,58.3627204 L4.40806045,58.3627204 L4.40806045,35.2644836 Z M74.9370277,13.2241814 L102.443325,13.2241814 L102.443325,83.7531486 L110.201511,83.7531486 L110.201511,13.2241814 L137.707809,13.2241814 L137.707809,98.0352645 L133.299748,98.0352645 L133.299748,106.851385 L128.891688,106.851385 L128.891688,115.667506 L124.483627,115.667506 L124.483627,120.075567 L88.1612091,120.075567 L88.1612091,115.667506 L83.7531486,115.667506 L83.7531486,106.851385 L79.3450882,106.851385 L79.3450882,98.0352645 L74.9370277,98.0352645 L74.9370277,13.2241814 Z M145.465995,13.2241814 L195.012594,13.2241814 L195.012594,17.6322418 L199.420655,17.6322418 L199.420655,26.4483627 L203.828715,26.4483627 L203.828715,35.2644836 L208.236776,35.2644836 L208.236776,62.7707809 L203.828715,62.7707809 L203.828715,71.5869018 L199.420655,71.5869018 L199.420655,80.4030227 L195.012594,80.4030227 L195.012594,84.8110831 L176.322418,84.8110831 L176.322418,49.5465995 L172.002519,49.5465995 L172.002519,120.075567 L145.465995,120.075567 L145.465995,13.2241814 Z M215.994962,35.2644836 L220.403023,35.2644836 L220.403023,26.4483627 L224.811083,26.4483627 L224.811083,17.6322418 L229.219144,17.6322418 L229.219144,13.2241814 L278.765743,13.2241814 L278.765743,49.5465995 L242.531486,49.5465995 L242.531486,83.7531486 L278.765743,83.7531486 L278.765743,120.075567 L229.219144,120.075567 L229.219144,115.667506 L224.811083,115.667506 L224.811083,106.851385 L220.403023,106.851385 L220.403023,98.0352645 L215.994962,98.0352645 L215.994962,35.2644836 Z M246.851385,52.8967254 L274.357683,52.8967254 L274.357683,80.4030227 L246.851385,80.4030227 L246.851385,52.8967254 Z M286.523929,13.2241814 L336.070529,13.2241814 L336.070529,17.6322418 L340.478589,17.6322418 L340.478589,26.4483627 L344.88665,26.4483627 L344.88665,35.2644836 L349.29471,35.2644836 L349.29471,62.7707809 L344.005038,62.7707809 L344.005038,67.1788413 L339.596977,67.1788413 L339.596977,70.5289673 L344.005038,70.5289673 L344.005038,74.9370277 L349.29471,74.9370277 L349.29471,120.075567 L321.788413,120.075567 L322.670025,84.8110831 L318.261965,84.8110831 L318.261965,49.5465995 L312.972292,49.5465995 L312.972292,120.075567 L286.523929,120.075567 L286.523929,13.2241814 Z" id="Shadow" fill="#000000"></path>
                    <path d="M0,22.0403023 L4.40806045,22.0403023 L4.40806045,13.2241814 L8.81612091,13.2241814 L8.81612091,4.40806045 L13.2241814,4.40806045 L13.2241814,0 L49.5465995,0 L49.5465995,4.40806045 L53.9546599,4.40806045 L53.9546599,13.2241814 L58.3627204,13.2241814 L58.3627204,22.0403023 L62.7707809,22.0403023 L62.7707809,36.3224181 L31.9143577,36.3224181 L31.9143577,39.6725441 L36.3224181,39.6725441 L36.3224181,44.0806045 L45.138539,44.0806045 L45.138539,48.488665 L53.9546599,48.488665 L53.9546599,52.8967254 L58.3627204,52.8967254 L58.3627204,61.7128463 L62.7707809,61.7128463 L62.7707809,84.8110831 L58.3627204,84.8110831 L58.3627204,93.627204 L53.9546599,93.627204 L53.9546599,102.443325 L49.5465995,102.443325 L49.5465995,106.851385 L13.2241814,106.851385 L13.2241814,102.443325 L8.81612091,102.443325 L8.81612091,93.627204 L4.40806045,93.627204 L4.40806045,84.8110831 L0,84.8110831 L0,70.5289673 L35.2644836,70.5289673 L35.2644836,67.1788413 L26.4483627,67.1788413 L26.4483627,62.7707809 L17.6322418,62.7707809 L17.6322418,58.3627204 L8.81612091,58.3627204 L8.81612091,53.9546599 L4.40806045,53.9546599 L4.40806045,45.138539 L0,45.138539 L0,22.0403023 Z M70.5289673,0 L98.0352645,0 L98.0352645,70.5289673 L105.793451,70.5289673 L105.793451,0 L133.299748,0 L133.299748,84.8110831 L128.891688,84.8110831 L128.891688,93.627204 L124.483627,93.627204 L124.483627,102.443325 L120.075567,102.443325 L120.075567,106.851385 L83.7531486,106.851385 L83.7531486,102.443325 L79.3450882,102.443325 L79.3450882,93.627204 L74.9370277,93.627204 L74.9370277,84.8110831 L70.5289673,84.8110831 L70.5289673,0 Z M141.057935,0 L190.604534,0 L190.604534,4.40806045 L195.012594,4.40806045 L195.012594,13.2241814 L199.420655,13.2241814 L199.420655,22.0403023 L203.828715,22.0403023 L203.828715,49.5465995 L199.420655,49.5465995 L199.420655,58.3627204 L195.012594,58.3627204 L195.012594,67.1788413 L190.604534,67.1788413 L190.604534,71.5869018 L171.914358,71.5869018 L171.914358,36.3224181 L168.564232,36.3224181 L168.564232,106.851385 L141.057935,106.851385 L141.057935,0 Z M211.586902,22.0403023 L215.994962,22.0403023 L215.994962,13.2241814 L220.403023,13.2241814 L220.403023,4.40806045 L224.811083,4.40806045 L224.811083,0 L274.357683,0 L274.357683,36.3224181 L239.093199,36.3224181 L239.093199,70.5289673 L274.357683,70.5289673 L274.357683,106.851385 L224.811083,106.851385 L224.811083,102.443325 L220.403023,102.443325 L220.403023,93.627204 L215.994962,93.627204 L215.994962,84.8110831 L211.586902,84.8110831 L211.586902,22.0403023 Z M242.443325,39.6725441 L269.949622,39.6725441 L269.949622,67.1788413 L242.443325,67.1788413 L242.443325,39.6725441 Z M282.115869,0 L331.662469,0 L331.662469,4.40806045 L336.070529,4.40806045 L336.070529,13.2241814 L340.478589,13.2241814 L340.478589,22.0403023 L344.88665,22.0403023 L344.88665,49.5465995 L340.478589,49.5465995 L340.478589,53.9546599 L336.070529,53.9546599 L336.070529,57.3047859 L340.478589,57.3047859 L340.478589,61.7128463 L344.88665,61.7128463 L344.88665,106.851385 L317.380353,106.851385 L317.380353,71.5869018 L312.972292,71.5869018 L312.972292,36.3224181 L309.622166,36.3224181 L309.622166,106.851385 L282.115869,106.851385 L282.115869,0 Z" id="super" fill="#D89E6D"></path>
                </g>
                <g id="Badge">
                    <g>
                        <polygon id="Path" fill="#000000" fill-rule="nonzero" points="115.158198 0 125.85805 26.5244658 150.507823 15.4784749 152.135963 34.9219841 188.15853 23.2945589 171.265837 51.493411 194.476503 54.6239745 178.916829 73.3694457 209.729168 82.9778018 174.749634 97.773288 185.314492 114.588842 160.180599 120.496137 167.329252 146.704102 138.211289 137.326397 130.134731 159.332527 110.255816 147.335884 93.1411096 174.982461 82.1179899 149.194502 58.3142865 161.309036 55.7657492 140.483215 19.5384401 152.091241 36.7364911 123.473868 13.5321959 120.871538 29.3232111 101.944266 0 93.2377058 33.7636645 77.7934262 25.2643786 61.9745719 47.6080378 55.2775574 38.9304224 29.0835883 69.6884801 38.9891561 78.6360816 16.7417974 97.8547379 28.7753207"></polygon>
                        <polygon id="Path" fill="#FFFFFF" fill-rule="nonzero" points="114.089865 17.6610504 122.064484 37.4297825 143.417639 27.861063 144.887198 45.4107613 171.037986 36.9697655 158.545596 57.8232244 178.868941 60.5643575 165.29574 76.9166318 187.429222 83.8186193 162.854574 94.2130934 172.165128 109.032235 150.437226 114.139009 155.938507 134.307479 133.377616 127.041539 126.232094 146.510882 108.511776 135.816921 95.2356863 157.262714 86.7994458 137.526611 66.1284911 148.04678 63.8695783 129.587677 37.8055105 137.939176 50.7131757 116.460959 30.4856952 114.192476 44.1674901 97.7933363 22.9606941 91.4966779 46.2363579 80.8498519 38.6210229 66.6762053 58.7017861 60.6574435 52.2488313 41.178763 75.4859122 48.662216 83.3888126 29.012407 100.733439 39.8725296"></polygon>
                        <polygon fill="#FBD000" points="113.50738 23.9316239 120.658772 41.6596141 140.439294 32.795619 141.811405 49.1815837 165.114987 41.6596141 153.932908 60.32578 172.798987 62.8703626 160.208219 78.0390526 179.880792 84.1736432 158.159866 93.361063 166.813621 107.134811 146.694086 111.863566 151.664196 130.084688 131.250255 123.510192 124.603814 141.619694 108.097445 131.658334 96.0815934 151.068376 88.4694789 133.260269 69.3116704 143.010345 67.2097892 125.834453 44.0346755 133.260269 55.6289234 113.967564 36.8681171 111.863566 49.5427462 96.6716258 30.6623932 91.0657278 51.1352156 81.7009862 44.0346755 68.4854747 62.7687176 62.8703626 56.9849758 45.4117466 77.8895939 52.1440349 85.2381488 33.872553 101.432269 44.0123006"></polygon>
                    </g>
                    <path d="M100.776488,45.6196581 C103.648298,45.6196581 105.648902,46.4079385 106.778361,47.984523 C107.907821,49.5611074 108.079221,51.8046748 107.292568,54.7152922 L105.424275,61.6279741 C104.965394,63.3258343 103.886909,64.6598473 102.188786,65.6300531 C103.362473,66.600259 103.719871,67.9342719 103.260989,69.6321321 L101.294366,76.9086394 C100.507713,79.8192569 99.123573,82.0628242 97.1419057,83.6394086 C95.1602385,85.2159931 92.7335366,86.0042735 89.8617274,86.0042735 C86.9899182,86.0042735 84.9893139,85.2159931 83.8598544,83.6394086 C82.730395,82.0628242 82.5589946,79.8192569 83.3456479,76.9086394 L84.2306285,73.6342111 L91.4101157,73.6342111 L90.5251351,76.9086394 L94.1148787,76.9086394 L96.0815023,69.6321321 L92.4917587,69.6321321 L94.6550446,61.6279741 L98.2447882,61.6279741 L100.113081,54.7152922 L96.5233371,54.7152922 L95.6383564,57.9897205 L88.4588693,57.9897205 L89.3438499,54.7152922 C90.1305032,51.8046748 91.5146428,49.5611074 93.49631,47.984523 C95.4779773,46.4079385 97.9046791,45.6196581 100.776488,45.6196581 Z M111.549762,86.0042735 C108.677952,86.0042735 106.679285,85.2088269 105.553699,83.6179099 C104.428113,82.0269928 104.262225,79.7630294 105.05603,76.8259518 L105.949056,73.521756 L113.128543,73.521756 L112.235517,76.8259518 L115.825261,76.8259518 L117.809763,69.4832945 L107.040532,69.4832945 L113.490164,45.6196581 L131.438881,45.6196581 L128.164453,57.7350427 L120.984966,57.7350427 L122.076442,53.6965812 L118.486699,53.6965812 L116.402971,61.4063714 L119.992715,61.4063714 C122.385889,61.4063714 123.982301,62.1406298 124.78198,63.6091686 C125.581665,65.0777074 125.650754,67.0357298 124.98925,69.4832945 L123.004748,76.8259518 C122.210943,79.7630294 120.821291,82.0269928 118.83575,83.6179099 C116.850209,85.2088269 114.421571,86.0042735 111.549762,86.0042735 Z M73.7959113,112.570571 L77.5352275,112.570571 C78.9813338,107.219978 79.7056085,102.234272 79.7080735,97.6133057 C77.2127185,102.234272 75.2420175,107.219978 73.7959113,112.570571 Z M67.1448795,112.275542 C68.5863423,106.94213 70.6638249,101.911828 73.3773897,97.184485 L73.9998794,96.1068423 C76.3753127,92.0218785 78.0145931,89.5326022 78.9177639,88.6389467 L86.0972511,88.6389467 C86.5531193,89.608658 86.860171,92.4571423 87.0184154,97.184485 C87.1766598,101.911828 86.5350603,106.94213 85.0935975,112.275542 L80.7692308,128.275699 L73.5897436,128.275699 L75.7519269,120.27562 L72.1621834,120.27562 L70,128.275699 L62.8205128,128.275699 L67.1448795,112.275542 Z M105.990413,88.6389467 L113.169901,88.6389467 L102.457265,128.275699 L95.2777778,128.275699 L95.2261524,115.184661 L91.6880342,128.275699 L84.508547,128.275699 L95.2211827,88.6389467 L102.40067,88.6389467 L102.452295,101.729984 L105.990413,88.6389467 Z M114.450937,97.7345808 C115.237591,94.8239633 116.62173,92.580396 118.603398,91.0038116 C120.585065,89.4272271 123.011767,88.6389467 125.883576,88.6389467 C128.755385,88.6389467 130.755989,89.4272271 131.885449,91.0038116 C133.014908,92.580396 133.186309,94.8239633 132.399655,97.7345808 L130.531363,104.647263 L123.351876,104.647263 L125.220168,97.7345808 L121.630425,97.7345808 L120.253788,102.828136 C119.99157,103.798342 120.480075,104.647259 121.719316,105.374913 L126.056639,107.921691 C128.122041,109.134448 128.925289,110.589735 128.466408,112.287595 L126.401453,119.927928 C125.6148,122.838545 124.230661,125.082113 122.248993,126.658697 C120.267326,128.235282 117.840624,129.023562 114.968815,129.023562 C112.097006,129.023562 110.096401,128.235282 108.966942,126.658697 C107.837483,125.082113 107.666082,122.838545 108.452735,119.927928 L110.419359,112.651421 L117.598846,112.651421 L115.632223,119.927928 L119.221966,119.927928 L120.795265,114.106722 C121.057483,113.136516 120.568978,112.287599 119.329737,111.559945 L114.992414,109.013167 C112.927012,107.80041 112.123764,106.345123 112.582645,104.647263 L114.450937,97.7345808 Z" id="35ANS" fill="#000000" fill-rule="nonzero" transform="translate(97.852303, 87.321610) rotate(-5.000000) translate(-97.852303, -87.321610) "></path>
                </g>
            </g>
        </g>
    </g>
</svg>