<?xml version="1.0" encoding="UTF-8"?>
<svg width="1448px" height="776px" viewBox="0 0 1448 776" version="1.1" xmlns="http://www.w3.org/2000/svg" xmlns:xlink="http://www.w3.org/1999/xlink">
    <!-- Generator: Sketch 59 (86127) - https://sketch.com -->
    <title>Charte Graphique / Exports / Logo / Texte / Blanc</title>
    <desc>Created with Sketch.</desc>
    <g id="Charte-Graphique-/-Exports-/-Logo-/-Texte-/-Blanc" stroke="none" stroke-width="1" fill="none" fill-rule="evenodd">
        <g id="Logo-/-Texte-/-Blanc" transform="translate(61.000000, 87.000000)" fill="#FFFFFF">
            <path d="M34.5858064,599.215613 C33.6188866,599.215613 32.8193302,598.899631 32.1871134,598.267658 C31.5548966,597.635685 31.2387929,596.836436 31.2387929,595.869888 L31.2387929,512.115242 L37.93282,512.115242 L37.93282,595.869888 C37.93282,596.836436 37.6167163,597.635685 36.9844995,598.267658 C36.3522826,598.899631 35.5527263,599.215613 34.5858064,599.215613 Z M3.01231217,518.137546 C2.11977077,518.137546 1.39459176,517.858739 0.836753382,517.301115 C0.278915005,516.743492 0,516.018592 0,515.126394 C0,514.234196 0.278915005,513.509296 0.836753382,512.951673 C1.39459176,512.394049 2.11977077,512.115242 3.01231217,512.115242 L66.1593007,512.115242 C67.0518421,512.115242 67.7770211,512.394049 68.3348595,512.951673 C68.8926979,513.509296 69.1716129,514.234196 69.1716129,515.126394 C69.1716129,516.018592 68.8926979,516.743492 68.3348595,517.301115 C67.7770211,517.858739 67.0518421,518.137546 66.1593007,518.137546 L3.01231217,518.137546 Z M92.7866528,599.215613 C91.8197329,599.215613 91.0201766,598.899631 90.3879597,598.267658 C89.7557429,597.635685 89.4396392,596.836436 89.4396392,595.869888 L89.4396392,515.460967 C89.4396392,514.420069 89.7557429,513.60223 90.3879597,513.007435 C91.0201766,512.412636 91.8197329,512.115242 92.7866528,512.115242 L114.095972,512.115242 C119.525599,512.115242 124.341531,513.249059 128.543914,515.516729 C132.746296,517.784398 136.037493,520.888456 138.417604,524.828996 C140.797714,528.769536 141.987752,533.341981 141.987752,538.546468 C141.987752,543.602256 140.797714,548.100352 138.417604,552.040892 C136.037493,555.981432 132.746296,559.066903 128.543914,561.297398 C124.341531,563.527892 119.525599,564.643123 114.095972,564.643123 L96.1336663,564.643123 L96.1336663,595.869888 C96.1336663,596.836436 95.8361569,597.635685 95.2411293,598.267658 C94.6461047,598.899631 93.8279511,599.215613 92.7866528,599.215613 Z M139.644842,599.215613 C138.826679,599.215613 138.213066,599.048329 137.803985,598.713755 C137.394903,598.37918 137.004422,597.951673 136.63253,597.431227 L114.430674,561.966543 L121.347835,560.405204 L142.43402,594.085502 C143.40094,595.572498 143.605478,596.799252 143.047639,597.765799 C142.489801,598.732347 141.355546,599.215613 139.644842,599.215613 Z M96.1336663,557.951673 L114.095972,557.951673 C118.261165,557.951673 121.924249,557.11525 125.085333,555.442379 C128.246417,553.769508 130.738058,551.483286 132.56033,548.583643 C134.382602,545.684 135.293725,542.338309 135.293725,538.546468 C135.293725,534.680278 134.382602,531.260238 132.56033,528.286245 C130.738058,525.312253 128.246417,522.988856 125.085333,521.315985 C121.924249,519.643114 118.261165,518.806691 114.095972,518.806691 L96.1336663,518.806691 L96.1336663,557.951673 Z M193.051343,523.180073 L162.144211,597.096654 C161.846697,597.840152 161.437622,598.37918 160.916973,598.713755 C160.396323,599.048329 159.764116,599.215613 159.020332,599.215613 C157.607141,599.215613 156.621641,598.657998 156.063803,597.542751 C155.505965,596.427504 155.48737,595.386617 156.008019,594.420074 L189.812856,514.457249 C190.407884,512.895903 191.486355,512.115242 193.048302,512.115242 C194.535871,512.115242 195.614343,512.895903 196.283749,514.457249 L230.200153,594.420074 C230.79518,595.460972 230.757991,596.520441 230.088585,597.598513 C229.419179,598.676585 228.452274,599.215613 227.18784,599.215613 C226.444056,599.215613 225.830443,599.048329 225.346983,598.713755 C224.863523,598.37918 224.435853,597.840152 224.063961,597.096654 L193.051343,523.180073 Z M167.276298,577.356877 L169.953909,571.334572 L216.36583,571.334572 L218.931874,577.356877 L167.276298,577.356877 Z M253.92676,599.215613 C252.95984,599.215613 252.160283,598.899631 251.528067,598.267658 C250.89585,597.635685 250.579746,596.836436 250.579746,595.869888 L250.579746,515.460967 C250.579746,514.494419 250.89585,513.69517 251.528067,513.063197 C252.160283,512.431224 252.95984,512.115242 253.92676,512.115242 C254.893679,512.115242 255.693236,512.431224 256.325453,513.063197 C256.957669,513.69517 257.273773,514.494419 257.273773,515.460967 L257.273773,595.869888 C257.273773,596.836436 256.957669,597.635685 256.325453,598.267658 C255.693236,598.899631 254.893679,599.215613 253.92676,599.215613 Z M312.127606,599.215613 C311.160686,599.215613 310.36113,598.899631 309.728913,598.267658 C309.096696,597.635685 308.780592,596.836436 308.780592,595.869888 L308.780592,512.115242 L315.474619,512.115242 L315.474619,595.869888 C315.474619,596.836436 315.158516,597.635685 314.526299,598.267658 C313.894082,598.899631 313.094526,599.215613 312.127606,599.215613 Z M280.554112,518.137546 C279.66157,518.137546 278.936391,517.858739 278.378553,517.301115 C277.820714,516.743492 277.541799,516.018592 277.541799,515.126394 C277.541799,514.234196 277.820714,513.509296 278.378553,512.951673 C278.936391,512.394049 279.66157,512.115242 280.554112,512.115242 L343.7011,512.115242 C344.593642,512.115242 345.318821,512.394049 345.876659,512.951673 C346.434497,513.509296 346.713412,514.234196 346.713412,515.126394 C346.713412,516.018592 346.434497,516.743492 345.876659,517.301115 C345.318821,517.858739 344.593642,518.137546 343.7011,518.137546 L280.554112,518.137546 Z M370.328452,599.215613 C369.361532,599.215613 368.561976,598.899631 367.929759,598.267658 C367.297542,597.635685 366.981439,596.836436 366.981439,595.869888 L366.981439,515.460967 C366.981439,514.494419 367.297542,513.69517 367.929759,513.063197 C368.561976,512.431224 369.361532,512.115242 370.328452,512.115242 L423.992236,512.115242 C424.884777,512.115242 425.665739,512.431224 426.335145,513.063197 C427.004551,513.69517 427.339249,514.494419 427.339249,515.460967 C427.339249,516.353164 427.004551,517.133826 426.335145,517.802974 C425.665739,518.472122 424.884777,518.806691 423.992236,518.806691 L373.675466,518.806691 L373.675466,552.263941 L410.604182,552.263941 C411.571101,552.263941 412.370658,552.579922 413.002875,553.211896 C413.635091,553.843869 413.951195,554.643118 413.951195,555.609665 C413.951195,556.576213 413.635091,557.394049 413.002875,558.063197 C412.370658,558.732345 411.571101,559.066914 410.604182,559.066914 L373.675466,559.066914 L373.675466,592.524164 L423.992236,592.524164 C424.884777,592.524164 425.665739,592.858733 426.335145,593.527881 C427.004551,594.197029 427.339249,594.977691 427.339249,595.869888 C427.339249,596.836436 427.004551,597.635685 426.335145,598.267658 C425.665739,598.899631 424.884777,599.215613 423.992236,599.215613 L370.328452,599.215613 Z M484.424424,601 C477.879121,601 472.096283,599.717485 467.075738,597.152416 C462.055192,594.587348 458.113193,591.01861 455.249623,586.446097 C452.386053,581.873583 450.954289,576.650587 450.954289,570.776952 L450.954289,515.460967 C450.954289,514.420069 451.270393,513.60223 451.90261,513.007435 C452.534826,512.412636 453.334383,512.115242 454.301303,512.115242 C455.342601,512.115242 456.160755,512.412636 456.755779,513.007435 C457.350807,513.60223 457.648316,514.420069 457.648316,515.460967 L457.648316,570.776952 C457.648316,575.38664 458.782571,579.457231 461.051113,582.988848 C463.319656,586.520464 466.480693,589.289953 470.534318,591.297398 C474.587944,593.304843 479.217933,594.30855 484.424424,594.30855 C489.705294,594.30855 494.353878,593.304843 498.370314,591.297398 C502.38675,589.289953 505.547787,586.520464 507.853519,582.988848 C510.159251,579.457231 511.3121,575.38664 511.3121,570.776952 L511.3121,515.460967 C511.3121,514.420069 511.628203,513.60223 512.26042,513.007435 C512.892637,512.412636 513.692193,512.115242 514.659113,512.115242 C515.700412,512.115242 516.518562,512.412636 517.11359,513.007435 C517.708617,513.60223 518.006127,514.420069 518.006127,515.460967 L518.006127,570.776952 C518.006127,576.650587 516.574363,581.873583 513.710793,586.446097 C510.847222,591.01861 506.886629,594.587348 501.828895,597.152416 C496.77116,599.717485 490.969728,601 484.424424,601 Z M551.104372,599.215613 C550.137452,599.215613 549.337895,598.899631 548.705679,598.267658 C548.073462,597.635685 547.757358,596.836436 547.757358,595.869888 L547.757358,515.460967 C547.757358,514.420069 548.073462,513.60223 548.705679,513.007435 C549.337895,512.412636 550.137452,512.115242 551.104372,512.115242 L572.413691,512.115242 C577.843318,512.115242 582.65925,513.249059 586.861633,515.516729 C591.064015,517.784398 594.355212,520.888456 596.735323,524.828996 C599.115433,528.769536 600.30547,533.341981 600.30547,538.546468 C600.30547,543.602256 599.115433,548.100352 596.735323,552.040892 C594.355212,555.981432 591.064015,559.066903 586.861633,561.297398 C582.65925,563.527892 577.843318,564.643123 572.413691,564.643123 L554.451385,564.643123 L554.451385,595.869888 C554.451385,596.836436 554.153876,597.635685 553.558848,598.267658 C552.963824,598.899631 552.14567,599.215613 551.104372,599.215613 Z M597.962561,599.215613 C597.144398,599.215613 596.530785,599.048329 596.121704,598.713755 C595.712622,598.37918 595.322141,597.951673 594.950249,597.431227 L572.748392,561.966543 L579.665554,560.405204 L600.751739,594.085502 C601.718659,595.572498 601.923196,596.799252 601.365358,597.765799 C600.80752,598.732347 599.673265,599.215613 597.962561,599.215613 Z M554.451385,557.951673 L572.413691,557.951673 C576.578884,557.951673 580.241968,557.11525 583.403052,555.442379 C586.564136,553.769508 589.055777,551.483286 590.878049,548.583643 C592.700321,545.684 593.611443,542.338309 593.611443,538.546468 C593.611443,534.680278 592.700321,531.260238 590.878049,528.286245 C589.055777,525.312253 586.564136,522.988856 583.403052,521.315985 C580.241968,519.643114 576.578884,518.806691 572.413691,518.806691 L554.451385,518.806691 L554.451385,557.951673 Z M691.496036,523.180073 L660.588903,597.096654 C660.291389,597.840152 659.882314,598.37918 659.361665,598.713755 C658.841016,599.048329 658.208808,599.215613 657.465024,599.215613 C656.051833,599.215613 655.066333,598.657998 654.508495,597.542751 C653.950657,596.427504 653.932062,595.386617 654.452712,594.420074 L688.257548,514.457249 C688.852576,512.895903 689.931047,512.115242 691.492995,512.115242 C692.980564,512.115242 694.059035,512.895903 694.728441,514.457249 L728.644845,594.420074 C729.239872,595.460972 729.202684,596.520441 728.533278,597.598513 C727.863872,598.676585 726.896966,599.215613 725.632533,599.215613 C724.888748,599.215613 724.275135,599.048329 723.791675,598.713755 C723.308215,598.37918 722.880545,597.840152 722.508653,597.096654 L691.496036,523.180073 L691.496036,523.180073 Z M665.72099,577.356877 L668.398601,571.334572 L714.810522,571.334572 L717.376566,577.356877 L665.72099,577.356877 Z M775.131144,600.330855 C770.445301,600.330855 766.15001,599.680304 762.245142,598.379182 C758.340273,597.07806 754.974699,595.219343 752.148317,592.802974 C749.321936,590.386605 747.090616,587.542767 745.45429,584.271375 C745.00802,583.379178 744.989425,582.524168 745.398507,581.70632 C745.780316,580.942999 746.405086,580.406362 747.272834,580.096407 L747.462499,580.033457 C748.280661,579.736058 749.098812,579.773234 749.916975,580.144981 C750.672202,580.488133 751.268982,581.021333 751.70733,581.744593 L751.813616,581.929368 C753.152428,584.308562 754.91889,586.390326 757.113054,588.174721 C759.307218,589.959117 761.910425,591.31598 764.922752,592.245353 C767.93508,593.174726 771.337843,593.639405 775.131144,593.639405 C779.370715,593.639405 783.033799,592.933093 786.120505,591.520446 C789.20721,590.1078 791.587285,588.026036 793.2608,585.275093 C794.934315,582.52415 795.77106,579.178458 795.77106,575.237918 C795.77106,570.33083 794.004599,566.185891 790.471622,562.802974 C786.938646,559.420057 781.564884,557.245358 774.350174,556.27881 C766.019787,555.089213 759.511771,552.394073 754.825928,548.193309 C750.140086,543.992544 747.7972,538.881071 747.7972,532.858736 C747.7972,528.472097 748.894266,524.643139 751.08843,521.371747 C753.282594,518.100355 756.369253,515.553912 760.348501,513.732342 C764.327748,511.910772 768.920548,511 774.12704,511 C777.994719,511 781.564831,511.631964 784.837483,512.895911 C788.110135,514.159858 790.973662,515.814116 793.428151,517.858736 C795.88264,519.903356 797.779262,522.040881 799.118074,524.271375 C799.638723,525.089223 799.768883,525.962821 799.508559,526.892193 C799.248234,527.821566 798.634621,528.472119 797.667701,528.843866 C796.849538,529.141265 796.031388,529.159853 795.213225,528.899628 C794.395062,528.639404 793.725666,528.13755 793.205017,527.394052 C792.163718,525.832706 790.824926,524.308558 789.1886,522.821561 C787.552275,521.334565 785.506898,520.107812 783.052409,519.141264 C780.59792,518.174716 777.622827,517.69145 774.12704,517.69145 C768.028007,517.69145 763.230669,519.066901 759.734881,521.817844 C756.239094,524.568787 754.491227,528.472094 754.491227,533.527881 C754.491227,536.204474 755.216406,538.639394 756.666786,540.832714 C758.117165,543.026033 760.404269,544.903338 763.528163,546.464684 C766.531909,547.965978 770.32642,549.123553 774.911803,549.93744 L775.465845,550.033457 C785.060665,551.669153 791.959163,554.624514 796.161545,558.899628 C800.363928,563.174743 802.465087,568.620785 802.465087,575.237918 C802.465087,579.104109 801.814286,582.598497 800.512663,585.72119 C799.21104,588.843882 797.351607,591.483261 794.934307,593.639405 C792.517007,595.79555 789.634886,597.449808 786.287855,598.60223 C782.940825,599.754653 779.221958,600.330855 775.131144,600.330855 Z M831.658483,599.215613 C830.691563,599.215613 829.892007,598.899631 829.25979,598.267658 C828.627573,597.635685 828.31147,596.836436 828.31147,595.869888 L828.31147,515.460967 C828.31147,514.494419 828.627573,513.69517 829.25979,513.063197 C829.892007,512.431224 830.691563,512.115242 831.658483,512.115242 C832.625403,512.115242 833.424959,512.431224 834.057176,513.063197 C834.689393,513.69517 835.005497,514.494419 835.005497,515.460967 L835.005497,595.869888 C835.005497,596.836436 834.689393,597.635685 834.057176,598.267658 C833.424959,598.899631 832.625403,599.215613 831.658483,599.215613 Z M893.097817,523.180073 L862.190684,597.096654 C861.893171,597.840152 861.484095,598.37918 860.963446,598.713755 C860.442797,599.048329 859.81059,599.215613 859.066805,599.215613 C857.653615,599.215613 856.668115,598.657998 856.110276,597.542751 C855.552438,596.427504 855.533844,595.386617 856.054493,594.420074 L889.85933,514.457249 C890.454357,512.895903 891.532828,512.115242 893.094776,512.115242 C894.582345,512.115242 895.660816,512.895903 896.330222,514.457249 L930.246626,594.420074 C930.841654,595.460972 930.804465,596.520441 930.135059,597.598513 C929.465653,598.676585 928.498748,599.215613 927.234314,599.215613 C926.490529,599.215613 925.876916,599.048329 925.393456,598.713755 C924.909997,598.37918 924.482327,597.840152 924.110435,597.096654 L893.097817,523.180073 L893.097817,523.180073 Z M867.322772,577.356877 L870.000383,571.334572 L916.412304,571.334572 L918.978347,577.356877 L867.322772,577.356877 Z M966.803452,599.215613 C965.836532,599.215613 965.036975,598.899631 964.404759,598.267658 C963.772542,597.635685 963.456438,596.836436 963.456438,595.869888 L963.456438,512.115242 L970.150465,512.115242 L970.150465,595.869888 C970.150465,596.836436 969.834361,597.635685 969.202145,598.267658 C968.569928,598.899631 967.770371,599.215613 966.803452,599.215613 Z M935.229957,518.137546 C934.337416,518.137546 933.612237,517.858739 933.054399,517.301115 C932.49656,516.743492 932.217645,516.018592 932.217645,515.126394 C932.217645,514.234196 932.49656,513.509296 933.054399,512.951673 C933.612237,512.394049 934.337416,512.115242 935.229957,512.115242 L998.376946,512.115242 C999.269487,512.115242 999.994666,512.394049 1000.5525,512.951673 C1001.11034,513.509296 1001.38926,514.234196 1001.38926,515.126394 C1001.38926,516.018592 1001.11034,516.743492 1000.5525,517.301115 C999.994666,517.858739 999.269487,518.137546 998.376946,518.137546 L935.229957,518.137546 Z M1025.0043,599.215613 C1024.03738,599.215613 1023.23782,598.899631 1022.6056,598.267658 C1021.97339,597.635685 1021.65728,596.836436 1021.65728,595.869888 L1021.65728,515.460967 C1021.65728,514.494419 1021.97339,513.69517 1022.6056,513.063197 C1023.23782,512.431224 1024.03738,512.115242 1025.0043,512.115242 C1025.97122,512.115242 1026.77077,512.431224 1027.40299,513.063197 C1028.03521,513.69517 1028.35131,514.494419 1028.35131,515.460967 L1028.35131,595.869888 C1028.35131,596.836436 1028.03521,597.635685 1027.40299,598.267658 C1026.77077,598.899631 1025.97122,599.215613 1025.0043,599.215613 Z M1132.85251,598.211896 L1108.08461,573.67658 C1107.41521,573.007432 1107.08051,572.245357 1107.08051,571.390335 C1107.08051,570.535312 1107.41521,569.773238 1108.08461,569.104089 C1108.75402,568.434941 1109.51639,568.100372 1110.37174,568.100372 C1111.22709,568.100372 1111.98946,568.434941 1112.65886,569.104089 L1137.42676,593.639405 C1138.09617,594.308554 1138.43087,595.070628 1138.43087,595.925651 C1138.43087,596.780673 1138.09617,597.542748 1137.42676,598.211896 C1136.75736,598.881044 1135.99499,599.215613 1135.13964,599.215613 C1134.28429,599.215613 1133.52192,598.881044 1132.85251,598.211896 Z M1098.37827,600.330855 C1091.98173,600.330855 1086.06873,599.215625 1080.6391,596.98513 C1075.20947,594.754636 1070.46792,591.613403 1066.41429,587.561338 C1062.36067,583.509273 1059.21823,578.769544 1056.98687,573.342007 C1054.75552,567.914471 1053.63986,562.003749 1053.63986,555.609665 C1053.63986,549.215581 1054.75552,543.323447 1056.98687,537.933086 C1059.21823,532.542724 1062.36067,527.821582 1066.41429,523.769517 C1070.46792,519.717452 1075.20947,516.576219 1080.6391,514.345725 C1086.06873,512.11523 1091.98173,511 1098.37827,511 C1104.77482,511 1110.66922,512.11523 1116.06166,514.345725 C1121.4541,516.576219 1126.17706,519.717452 1130.23068,523.769517 C1134.28431,527.821582 1137.42675,532.542724 1139.65811,537.933086 C1141.88946,543.323447 1143.00512,549.215581 1143.00512,555.609665 C1143.00512,562.003749 1141.88946,567.914471 1139.65811,573.342007 C1137.42675,578.769544 1134.28431,583.509273 1130.23068,587.561338 C1126.17706,591.613403 1121.4541,594.754636 1116.06166,596.98513 C1110.66922,599.215625 1104.77482,600.330855 1098.37827,600.330855 Z M1098.37827,593.639405 C1103.73352,593.639405 1108.7168,592.69145 1113.32827,590.795539 C1117.93973,588.899619 1121.9747,586.223066 1125.4333,582.765799 C1128.8919,579.308533 1131.56948,575.275116 1133.46613,570.665428 C1135.36278,566.055739 1136.31109,561.037202 1136.31109,555.609665 C1136.31109,550.256479 1135.36278,545.275116 1133.46613,540.665428 C1131.56948,536.055739 1128.8919,532.022322 1125.4333,528.565056 C1121.9747,525.107789 1117.93973,522.431236 1113.32827,520.535316 C1108.7168,518.639396 1103.73352,517.69145 1098.37827,517.69145 C1092.94865,517.69145 1087.92818,518.639396 1083.31671,520.535316 C1078.70525,522.431236 1074.67028,525.107789 1071.21168,528.565056 C1067.75308,532.022322 1065.0755,536.055739 1063.17885,540.665428 C1061.2822,545.275116 1060.33389,550.256479 1060.33389,555.609665 C1060.33389,561.037202 1061.2822,566.055739 1063.17885,570.665428 C1065.0755,575.275116 1067.75308,579.308533 1071.21168,582.765799 C1074.67028,586.223066 1078.70525,588.899619 1083.31671,590.795539 C1087.92818,592.69145 1092.94865,593.639405 1098.37827,593.639405 Z M1201.7638,601 C1195.2185,601 1189.43566,599.717485 1184.41511,597.152416 C1179.39457,594.587348 1175.45257,591.01861 1172.589,586.446097 C1169.72543,581.873583 1168.29367,576.650587 1168.29367,570.776952 L1168.29367,515.460967 C1168.29367,514.420069 1168.60977,513.60223 1169.24199,513.007435 C1169.8742,512.412636 1170.67376,512.115242 1171.64068,512.115242 C1172.68198,512.115242 1173.50013,512.412636 1174.09516,513.007435 C1174.69018,513.60223 1174.98769,514.420069 1174.98769,515.460967 L1174.98769,570.776952 C1174.98769,575.38664 1176.12195,579.457231 1178.39049,582.988848 C1180.65903,586.520464 1183.82007,589.289953 1187.8737,591.297398 C1191.92732,593.304843 1196.55731,594.30855 1201.7638,594.30855 C1207.04467,594.30855 1211.69325,593.304843 1215.70969,591.297398 C1219.72613,589.289953 1222.88716,586.520464 1225.1929,582.988848 C1227.49863,579.457231 1228.65148,575.38664 1228.65148,570.776952 L1228.65148,515.460967 C1228.65148,514.420069 1228.96758,513.60223 1229.5998,513.007435 C1230.23201,512.412636 1231.03157,512.115242 1231.99849,512.115242 C1233.03979,512.115242 1233.85794,512.412636 1234.45297,513.007435 C1235.04799,513.60223 1235.3455,514.420069 1235.3455,515.460967 L1235.3455,570.776952 C1235.3455,576.650587 1233.91374,581.873583 1231.05017,586.446097 C1228.1866,591.01861 1224.22601,594.587348 1219.16827,597.152416 C1214.11054,599.717485 1208.3091,601 1201.7638,601 Z M1268.44375,599.215613 C1267.47683,599.215613 1266.67727,598.899631 1266.04506,598.267658 C1265.41284,597.635685 1265.09673,596.836436 1265.09673,595.869888 L1265.09673,515.460967 C1265.09673,514.494419 1265.41284,513.69517 1266.04506,513.063197 C1266.67727,512.431224 1267.47683,512.115242 1268.44375,512.115242 L1322.10753,512.115242 C1323.00007,512.115242 1323.78104,512.431224 1324.45044,513.063197 C1325.11985,513.69517 1325.45455,514.494419 1325.45455,515.460967 C1325.45455,516.353164 1325.11985,517.133826 1324.45044,517.802974 C1323.78104,518.472122 1323.00007,518.806691 1322.10753,518.806691 L1271.79076,518.806691 L1271.79076,552.263941 L1308.71948,552.263941 C1309.6864,552.263941 1310.48595,552.579922 1311.11817,553.211896 C1311.75039,553.843869 1312.06649,554.643118 1312.06649,555.609665 C1312.06649,556.576213 1311.75039,557.394049 1311.11817,558.063197 C1310.48595,558.732345 1309.6864,559.066914 1308.71948,559.066914 L1271.79076,559.066914 L1271.79076,592.524164 L1322.10753,592.524164 C1323.00007,592.524164 1323.78104,592.858733 1324.45044,593.527881 C1325.11985,594.197029 1325.45455,594.977691 1325.45455,595.869888 C1325.45455,596.836436 1325.11985,597.635685 1324.45044,598.267658 C1323.78104,598.899631 1323.00007,599.215613 1322.10753,599.215613 L1268.44375,599.215613 Z" id="TRAITEURASIATIQUE" fill-rule="nonzero"></path>
            <g id="Group" stroke-width="1" fill-rule="evenodd" transform="translate(11.000000, 0.000000)">
                <path d="M651.5,0 C682.089169,0 710.117262,5.15158098 735.51891,15.4874239 C760.924044,25.8246851 782.977623,40.4099207 801.604187,59.2122073 C820.229027,78.0127534 834.634997,100.236598 844.793521,125.808053 C854.941321,151.352516 860,179.436905 860,210 C860,240.557133 854.943346,268.717464 844.802121,294.420225 C834.644357,320.164903 820.236142,342.480065 801.604187,361.287793 C782.977623,380.090079 760.924044,394.675315 735.51891,405.012576 C710.117262,415.348419 682.089169,420.5 651.5,420.5 C620.916944,420.5 592.813079,415.350534 567.25327,405.02157 C541.661542,394.679707 519.58758,380.080991 501.112542,361.254048 C482.662027,342.452095 468.349302,320.14883 458.197879,294.420225 C448.056654,268.717464 443,240.557133 443,210 C443,179.436905 448.058679,151.352516 458.206479,125.808053 C468.358615,100.252678 482.6691,78.040697 501.112542,59.245952 C519.58758,40.4190086 541.661542,25.8202925 567.25327,15.4784299 C592.813079,5.14946598 620.916944,0 651.5,0 Z M651.5,67 C631.138011,67 612.543199,70.5789178 595.638126,77.7131686 C578.72696,84.8499911 564.204981,94.8145401 551.993454,107.644372 C539.728911,120.529905 530.174274,135.6775 523.307515,153.156524 C516.441143,170.634561 513,189.560848 513,210 C513,230.439152 516.441143,249.365439 523.307515,266.843476 C530.174274,284.3225 539.728911,299.470095 551.993454,312.355628 C564.222346,325.203704 578.769383,335.262825 595.709518,342.567287 C612.595273,349.8483 631.164553,353.5 651.5,353.5 C671.835447,353.5 690.404727,349.8483 707.290482,342.567287 C724.248035,335.255315 738.894326,325.181146 751.300009,312.31025 C763.694291,299.451183 773.222861,284.344912 779.914397,266.915795 C786.632525,249.417416 790,230.46558 790,210 C790,189.53442 786.632525,170.582584 779.914397,153.084205 C773.222861,135.655088 763.694291,120.548817 751.300009,107.68975 C738.911786,94.8369688 724.290495,84.8573572 707.361874,77.7131686 C690.456801,70.5789178 671.861989,67 651.5,67 Z" id="Combined-Shape" fill-rule="nonzero"></path>
                <path d="M370,10.5 C378.611407,10.5 386.028553,13.4067197 391.97511,19.1550581 C397.977773,24.9576323 401,32.5131987 401,41.5 L401,380 C401,388.680399 397.872632,396.145728 391.727107,402.093011 C385.634763,407.988828 378.307577,411 370,411 C361.353859,411 353.911937,407.983005 347.964466,402.035534 C342.016995,396.088063 339,388.646141 339,380 L339,152.923872 L227.353265,380.478669 L226.880181,381.196096 C220.34309,390.933277 211.405978,396 200.5,396 C187.556139,396 177.823256,389.71418 172.026141,377.732619 L62,157.255525 L62,380 C62,388.646141 58.9830047,396.088063 53.0355339,402.035534 C47.0880631,407.983005 39.6461413,411 31,411 C22.3538587,411 14.9119369,407.983005 8.96446609,402.035534 C3.01699533,396.088063 0,388.646141 0,380 L0,41.5 C0,32.5131987 3.02222653,24.9576323 9.02488952,19.1550581 C14.9714465,13.4067197 22.3885933,10.5 31,10.5 C42.6666815,10.5 51.8704728,16.0008583 58.0734151,26.5571519 L58.410863,27.141188 L202.338382,315.456058 L342.576392,27.1634921 L342.926585,26.5571519 C349.129527,16.0008583 358.333318,10.5 370,10.5 Z" id="Path" fill-rule="nonzero"></path>
                <path d="M1271.5,10.5 C1280.11141,10.5 1287.52855,13.4067197 1293.47511,19.1550581 C1299.47777,24.9576323 1302.5,32.5131987 1302.5,41.5 L1302.5,380 C1302.5,388.680399 1299.37263,396.145728 1293.22711,402.093011 C1287.13476,407.988828 1279.80758,411 1271.5,411 C1262.85386,411 1255.41194,407.983005 1249.46447,402.035534 C1243.517,396.088063 1240.5,388.646141 1240.5,380 L1240.5,152.923872 L1128.85326,380.478669 L1128.38018,381.196096 C1121.84309,390.933277 1112.90598,396 1102,396 C1089.05614,396 1079.32326,389.71418 1073.52614,377.732619 L963.5,157.255525 L963.5,380 C963.5,388.646141 960.483005,396.088063 954.535534,402.035534 C948.588063,407.983005 941.146141,411 932.5,411 C923.853859,411 916.411937,407.983005 910.464466,402.035534 C904.516995,396.088063 901.5,388.646141 901.5,380 L901.5,41.5 C901.5,32.5131987 904.522227,24.9576323 910.52489,19.1550581 C916.471447,13.4067197 923.888593,10.5 932.5,10.5 C944.166682,10.5 953.370473,16.0008583 959.573415,26.5571519 L959.910863,27.141188 L1103.83838,315.456058 L1244.07639,27.1634921 L1244.42658,26.5571519 C1250.62953,16.0008583 1259.83332,10.5 1271.5,10.5 Z" id="Path" fill-rule="nonzero"></path>
            </g>
        </g>
    </g>
</svg>
