<?xml version="1.0" encoding="UTF-8"?>
<svg width="900px" height="400px" viewBox="0 0 900 400" version="1.1" xmlns="http://www.w3.org/2000/svg" xmlns:xlink="http://www.w3.org/1999/xlink">
    <!-- Generator: Sketch 59 (86127) - https://sketch.com -->
    <title>Banner / Color</title>
    <desc>Created with Sketch.</desc>
    <g id="Banner-/-Color" stroke="none" stroke-width="1" fill="none" fill-rule="evenodd">
        <g id="Group-2">
            <g id="Group">
                <g id="Icons-/-Webdesign-/-Color" fill="#FFC971">
                    <g id="Group" transform="translate(42.000000, 22.000000)">
                        <path d="M69.3862484,27.1252296 L71.9004906,36.508509 C73.1869669,41.309704 70.3377245,46.2447366 65.5365295,47.5312129 L23.5877508,58.7713543 C18.7865559,60.0578306 13.8515233,57.2085882 12.565047,52.4073932 L12.119356,50.7479155 L11.9833678,50.7884945 L9.22357968,51.5279775 L14.1781157,70.0185576 L45.3637209,61.6623999 C47.4309021,61.1085004 49.553907,62.279612 50.2043978,64.2933484 L50.2627004,64.490827 L55.4896074,84.0002123 L66.0164852,84.0008098 C67.7611097,75.8124325 70.1699588,64.5065178 73.2430327,50.0830655 C74.1637249,45.7617803 78.4131897,43.0050586 82.7344753,43.925749 C87.0557586,44.8464505 89.8124802,49.0959153 88.8917898,53.4172009 C86.1553348,66.2607356 83.9833052,76.4551447 82.3757011,84.0004284 L82.5229442,84 C85.8366527,84 88.5229442,86.6862915 88.5229442,90 C88.5229442,93.2383969 85.9573693,95.8775718 82.7478825,95.9958615 L82.5229442,96 L34.5229442,96 C26.7909577,96 20.5229442,102.268014 20.5229442,110 C20.5229442,117.6275 26.6226966,123.830327 34.2102992,123.996578 L34.5229442,124 L67.2614116,124 C70.5751201,124 73.2614116,126.686292 73.2614116,130 C73.2614116,133.238397 70.6958368,135.877572 67.4863499,135.995862 L67.2614116,136 L34.5229442,136 C20.1635407,136 8.52294422,124.359403 8.52294422,110 C8.52294422,95.7841905 19.9318929,84.2330838 34.0929867,84.0034833 L34.5229442,84 L47.2076074,83.9992123 L43.57057,70.4250827 L12.3849647,78.7812404 C10.3177836,79.3351399 8.19477866,78.1640283 7.54428786,76.1502919 L7.48598526,75.9528133 L0.460896894,49.7348266 C-0.093002626,47.6676454 1.078109,45.5446405 3.09184545,44.8941497 L3.28932402,44.8358471 L9.9128154,43.0610879 C9.95895652,43.0487244 10.0051255,43.0372204 10.0513052,43.026566 L10.0508048,43.0241138 C8.7643285,38.2229188 11.6135709,33.2878862 16.4147658,32.0014099 L58.3635446,20.7612685 C63.1647395,19.4747922 68.0997721,22.3240346 69.3862484,27.1252296 Z M104.508486,19.2988565 C101.406342,19.8458482 97.5674638,23.1251394 98.4123862,27.9169325 C99.4810223,33.9774691 95.3870467,39.7651352 89.2682358,40.8440466 C83.1494249,41.9229581 77.3228478,37.8845531 76.2542117,31.8240165 C74.8293636,23.7433012 80.2879977,16.026413 88.4464122,14.5878644 C93.9859558,13.6110934 100.324025,15.4353567 104.508486,19.2988565 Z" id="Combined-Shape" fill-rule="nonzero"></path>
                        <g id="Icons-/-_Res-/-Slash" transform="translate(70.522944, 0.000000)" fill-rule="nonzero">
                            <path d="M29.764294,6.89457087 L29.6940398,152.554024 C29.6919098,156.972301 33.2719039,160.55575 37.6901813,160.557882 C42.1084588,160.560012 45.6919079,156.980018 45.6940398,152.561741 L45.7642931,6.90228785 C45.7664231,2.48401037 42.1864291,-1.09943872 37.7681516,-1.10157066 C33.3498741,-1.1037007 29.766425,2.47629338 29.764294,6.89457087 Z" id="Line-4" transform="translate(37.729166, 79.728156) rotate(22.000000) translate(-37.729166, -79.728156) "></path>
                        </g>
                        <g id="Group-36" transform="translate(104.522944, 16.000000)">
                            <path d="M48.6712837,0 L91,0 C105.154269,0 116.666857,11.3103837 116.992899,25.3862876 L117,26 L117,94 C117,108.154269 105.689616,119.666857 91.6137124,119.992899 L91,120 L65.9585878,119.998915 C67.0440359,121.106124 68.009022,122.34837 68.8260509,123.710085 L69,124 C70.8761899,127.126983 69.8622216,131.182856 66.7352385,133.059046 C65.7090527,133.674758 64.5348242,134 63.3380962,134 L26.6619038,134 C23.0152462,134 20.0590461,131.0438 20.0590461,127.397142 C20.0590461,126.200414 20.3842885,125.026186 21,124 L21.1739491,123.710085 C21.990978,122.34837 22.9559641,121.106124 24.0414122,119.998915 L6,120 C2.6862915,120 0,117.313708 0,114 C0,110.804638 2.49783993,108.192678 5.64745442,108.010185 L6,108 L91,108 C98.5709034,108 104.738197,101.990433 104.991882,94.4812995 L105,94 L105,26 C105,18.4290966 98.9904332,12.2618026 91.4812995,12.008118 L91,12 L48.6712837,12 C45.3575752,12 42.6712837,9.3137085 42.6712837,6 C42.6712837,2.80463823 45.1691237,0.192678241 48.3187381,0.0101853868 L48.6712837,0 L91,0 L48.6712837,0 Z" id="Path"></path>
                        </g>
                    </g>
                </g>
                <g id="Icons-/-DevWeb-/-Color" transform="translate(300.000000, 0.000000)" fill="#00B1D4">
                    <g id="Icons-/-_Res-/-Slash" stroke-width="1" fill-rule="evenodd" transform="translate(114.000000, 22.000000)">
                        <path d="M29.764294,6.89457087 L29.6940398,152.554024 C29.6919098,156.972301 33.2719039,160.55575 37.6901813,160.557882 C42.1084588,160.560012 45.6919079,156.980018 45.6940398,152.561741 L45.7642931,6.90228785 C45.7664231,2.48401037 42.1864291,-1.09943872 37.7681516,-1.10157066 C33.3498741,-1.1037007 29.766425,2.47629338 29.764294,6.89457087 Z" id="Line-4" fill-rule="nonzero" transform="translate(37.729166, 79.728156) rotate(22.000000) translate(-37.729166, -79.728156) "></path>
                    </g>
                    <path d="M73.3867417,99.9775935 L111.488,122.752 C112.640006,123.424003 113.455998,124.263995 113.936,125.272 C114.416002,126.280005 114.656,127.311995 114.656,128.368 C114.656,130.672012 113.864008,132.711991 112.28,134.488 C110.695992,136.264009 109.088008,137.152 107.456,137.152 C106.399995,137.152 105.272006,136.840003 104.072,136.216 C102.871994,135.591997 101.600007,134.896004 100.256,134.128 L53.456,106.624 C52.3039942,105.855996 51.4400029,104.872006 50.864,103.672 C50.2879971,102.471994 50,101.248006 50,100 C50,98.6559933 50.2879971,97.384006 50.864,96.184 C51.4400029,94.983994 52.3039942,94.0480034 53.456,93.376 L100.256,66.448 C101.504006,65.6799962 102.679994,65.0800022 103.784,64.648 C104.888006,64.2159978 105.919995,64 106.88,64 C108.80001,64 110.599992,64.9359906 112.28,66.808 C113.960008,68.6800094 114.8,70.6239899 114.8,72.64 C114.8,73.6000048 114.536003,74.5359954 114.008,75.448 C113.479997,76.3600046 112.688005,77.1519966 111.632,77.824 L73.3867417,99.9775935 Z M226.613258,101.174407 L188.512,78.4 C187.359994,77.7279966 186.544002,76.888005 186.064,75.88 C185.583998,74.871995 185.344,73.8400053 185.344,72.784 C185.344,70.4799885 186.159992,68.4400089 187.792,66.664 C189.424008,64.8879911 191.007992,64 192.544,64 C193.600005,64 194.727994,64.3119969 195.928,64.936 C197.128006,65.5600031 198.399993,66.2559962 199.744,67.024 L246.544,94.528 C247.696006,95.2000034 248.559997,96.135994 249.136,97.336 C249.712003,98.536006 250,99.8079933 250,101.152 C250,102.496007 249.712003,103.767994 249.136,104.968 C248.559997,106.168006 247.696006,107.103997 246.544,107.776 L199.744,134.704 C198.495994,135.376003 197.344005,135.951998 196.288,136.432 C195.231995,136.912002 194.176005,137.152 193.12,137.152 C191.2,137.152 189.400008,136.216009 187.72,134.344 C186.039992,132.471991 185.2,130.52801 185.2,128.512 C185.2,127.455995 185.463997,126.496004 185.992,125.632 C186.520003,124.767996 187.311995,124 188.368,123.328 L226.613258,101.174407 L226.613258,101.174407 Z" id="&lt;&gt;" fill-rule="nonzero"></path>
                </g>
                <g id="Icons-/-DevOps-/-Color" transform="translate(600.000000, 0.000000)" fill="#588DA8">
                    <g id="Icons-/-_Res-/-Slash" stroke-width="1" fill-rule="evenodd" transform="translate(114.000000, 22.000000)">
                        <path d="M29.764294,6.89457087 L29.6940398,152.554024 C29.6919098,156.972301 33.2719039,160.55575 37.6901813,160.557882 C42.1084588,160.560012 45.6919079,156.980018 45.6940398,152.561741 L45.7642931,6.90228785 C45.7664231,2.48401037 42.1864291,-1.09943872 37.7681516,-1.10157066 C33.3498741,-1.1037007 29.766425,2.47629338 29.764294,6.89457087 Z" id="Line-4" fill-rule="nonzero" transform="translate(37.729166, 79.728156) rotate(22.000000) translate(-37.729166, -79.728156) "></path>
                    </g>
                    <g id="Group-11-Copy-2" stroke-width="1" fill-rule="evenodd" transform="translate(42.000000, 50.000000)">
                        <path d="M70,85.7142857 C73.9448911,85.7142857 77.1428571,88.9122518 77.1428571,92.8571429 C77.1428571,96.8020339 73.9448911,100 70,100 C66.0551089,100 62.8571429,96.8020339 62.8571429,92.8571429 C62.8571429,88.9122518 66.0551089,85.7142857 70,85.7142857 Z M47.1428571,85.7142857 C51.0877482,85.7142857 54.2857143,88.9122518 54.2857143,92.8571429 C54.2857143,96.8020339 51.0877482,100 47.1428571,100 L7.14285714,100 C3.19796607,100 -1.95399252e-14,96.8020339 -1.95399252e-14,92.8571429 C-1.95399252e-14,88.9122518 3.19796607,85.7142857 7.14285714,85.7142857 L47.1428571,85.7142857 Z M81.4285714,57.1428571 C85.3734625,57.1428571 88.5714286,60.3408232 88.5714286,64.2857143 C88.5714286,68.2306054 85.3734625,71.4285714 81.4285714,71.4285714 L58.5714286,71.4285714 C54.6265375,71.4285714 51.4285714,68.2306054 51.4285714,64.2857143 C51.4285714,60.3408232 54.6265375,57.1428571 58.5714286,57.1428571 L81.4285714,57.1428571 Z M35.7142857,57.1428571 C39.6591768,57.1428571 42.8571429,60.3408232 42.8571429,64.2857143 C42.8571429,68.2306054 39.6591768,71.4285714 35.7142857,71.4285714 L7.14285714,71.4285714 C3.19796607,71.4285714 -4.4408921e-14,68.2306054 -4.4408921e-14,64.2857143 C-4.4408921e-14,60.3408232 3.19796607,57.1428571 7.14285714,57.1428571 L35.7142857,57.1428571 Z M92.8571429,28.5714286 C96.8020339,28.5714286 100,31.7693946 100,35.7142857 C100,39.6591768 96.8020339,42.8571429 92.8571429,42.8571429 L7.14285714,42.8571429 C3.19796607,42.8571429 -1.77635684e-15,39.6591768 -1.77635684e-15,35.7142857 C-1.77635684e-15,31.7693946 3.19796607,28.5714286 7.14285714,28.5714286 L92.8571429,28.5714286 Z M7.14285714,-1.33226763e-14 C11.0877482,-1.33226763e-14 14.2857143,3.19796607 14.2857143,7.14285714 C14.2857143,11.0877482 11.0877482,14.2857143 7.14285714,14.2857143 C3.19796607,14.2857143 -1.42108547e-14,11.0877482 -1.42108547e-14,7.14285714 C-1.42108547e-14,3.19796607 3.19796607,-1.33226763e-14 7.14285714,-1.33226763e-14 Z M101.428571,-1.33226763e-14 C105.373462,-1.33226763e-14 108.571429,3.19796607 108.571429,7.14285714 C108.571429,11.0877482 105.373462,14.2857143 101.428571,14.2857143 L30,14.2857143 C26.0551089,14.2857143 22.8571429,11.0877482 22.8571429,7.14285714 C22.8571429,3.19796607 26.0551089,-1.33226763e-14 30,-1.33226763e-14 L101.428571,-1.33226763e-14 Z" id="Shape"></path>
                    </g>
                    <path d="M190.531354,52 C212.35946,52.9001345 230.304616,68.7783716 234.423954,89.6700844 C250.64159,90.8582168 263.428571,104.240339 263.428571,120.749125 C263.428571,129.041554 260.142728,136.994346 254.293888,142.857979 C248.679002,148.487066 241.143604,151.748122 233.231654,152 L158.214014,151.930006 C154.782109,151.930006 152,149.200057 152,145.726704 C152,142.253351 154.782109,139.494816 158.214014,139.494816 L232.240811,139.509109 C242.355638,139.509109 250.596073,131.463586 250.942151,121.40773 L250.953467,120.749125 C250.953467,110.608716 242.928241,102.347439 232.897754,102.000485 L222.884483,101.989141 L222.884483,98.8624767 C222.884483,80.4763129 208.493611,65.4598182 190.3881,64.5162274 C190.3881,64.5162274 190.396702,64.5148357 190.413905,64.5120522 C186.982,64.5120522 184.199891,61.7249301 184.199891,58.2515774 C184.199891,54.9459106 186.719856,52.2630692 189.921634,52.0091092 L190.531354,52 Z" id="Path" fill-rule="nonzero"></path>
                </g>
                <g id="Group-3" transform="translate(150.000000, 200.000000)">
                    <g id="Icons-/-DevMobile-/-Color">
                        <g id="Group-2" transform="translate(31.111154, 22.000000)">
                            <g id="Icons-/-_Res-/-Slash" transform="translate(82.888846, 0.000000)" fill="#21BF9A" fill-rule="nonzero">
                                <path d="M29.764294,6.89457087 L29.6940398,152.554024 C29.6919098,156.972301 33.2719039,160.55575 37.6901813,160.557882 C42.1084588,160.560012 45.6919079,156.980018 45.6940398,152.561741 L45.7642931,6.90228785 C45.7664231,2.48401037 42.1864291,-1.09943872 37.7681516,-1.10157066 C33.3498741,-1.1037007 29.766425,2.47629338 29.764294,6.89457087 Z" id="Line-4" transform="translate(37.729166, 79.728156) rotate(22.000000) translate(-37.729166, -79.728156) "></path>
                            </g>
                            <g id="Group" transform="translate(0.000000, 22.000000)" fill="#21BF9A" fill-rule="nonzero">
                                <path d="M50.9129261,0 L119.653496,0 C122.967204,0 125.653496,2.6862915 125.653496,6 C125.653496,9.19536177 123.155656,11.8073218 120.006041,11.9898146 L119.653496,12 L50.9129261,12 C49.3720455,12 47.9789152,12.8835593 47.314613,14.2528055 L47.1836298,14.5535044 L12.2750057,104.553504 C11.4761282,106.613138 12.4981729,108.930419 14.5578064,109.729296 C14.903762,109.863483 15.2661369,109.948661 15.6344279,109.982863 L16.0043019,110 L77.3313633,110 C80.6450718,110 83.3313633,112.686292 83.3313633,116 C83.3313633,119.195362 80.8335233,121.807322 77.6839089,121.989815 L77.3313633,122 L16.0043019,122 C14.0252723,122 12.0634165,121.632849 10.2183196,120.917185 C2.13821918,117.783127 -1.94962034,108.80681 0.910819296,100.690411 L1.0871169,100.214018 L35.9957411,10.2140177 C38.3155926,4.23307047 43.9734494,0.233551768 50.3486165,0.00989024756 L50.9129261,0 L119.653496,0 L50.9129261,0 Z M53.7467405,85.6052632 C57.743538,85.6052632 60.9835826,88.8453077 60.9835826,92.8421053 C60.9835826,96.8389028 57.743538,100.078947 53.7467405,100.078947 C49.7499429,100.078947 46.5098984,96.8389028 46.5098984,92.8421053 C46.5098984,88.8453077 49.7499429,85.6052632 53.7467405,85.6052632 Z" id="Shape"></path>
                            </g>
                            <g id="Group-28-Copy-2" transform="translate(128.888846, 32.000000)">
                                <path d="M29.0923122,2.27373675e-13 L102.929884,2.27373675e-13 C108.607712,2.27373675e-13 113.210502,4.6027896 113.210502,10.2806183 C113.210502,11.4205527 113.020921,12.5512053 112.650768,13.6265899 L112.450686,14.1594636 L92.3951961,63.3865742 C90.876534,67.1141995 87.3301187,69.5990438 83.3370277,69.777993 L82.8743941,69.7883472 L50.4057406,69.7883472 L14.5040767,90.3951696 C10.0319272,92.9620921 4.67873671,89.0716498 5.61576858,84.1043754 L5.68587111,83.7789513 L9.07470633,69.7883472 L6.89651359,69.7883472 C3.58280509,69.7883472 0.896513591,67.1020557 0.896513591,63.7883472 C0.896513591,60.5929854 3.39435352,57.9810254 6.54396801,57.7985326 L6.89651359,57.7883472 L16.7015458,57.7883472 C20.4690941,57.7883472 23.2732497,61.2076976 22.6057423,64.858036 L22.532916,65.2008347 L20.6339731,73.0405075 L45.8193478,58.5846164 C46.5984721,58.1374149 47.4663543,57.8718304 48.3584288,57.8050757 L48.8061831,57.7883472 L81.7182844,57.7883472 L100.372796,12 L29.0923122,12 C25.7786037,12 23.0923122,9.3137085 23.0923122,6 C23.0923122,2.80463823 25.5901522,0.192678241 28.7397667,0.0101853868 L29.0923122,2.27373675e-13 L102.929884,2.27373675e-13 L29.0923122,2.27373675e-13 Z M28.2068966,28.0689655 C32.0157569,28.0689655 35.1034483,31.1566569 35.1034483,34.9655172 C35.1034483,38.7743776 32.0157569,41.862069 28.2068966,41.862069 C24.3980362,41.862069 21.3103448,38.7743776 21.3103448,34.9655172 C21.3103448,31.1566569 24.3980362,28.0689655 28.2068966,28.0689655 Z M50.2758621,28.0689655 C54.0847224,28.0689655 57.1724138,31.1566569 57.1724138,34.9655172 C57.1724138,38.7743776 54.0847224,41.862069 50.2758621,41.862069 C46.4670017,41.862069 43.3793103,38.7743776 43.3793103,34.9655172 C43.3793103,31.1566569 46.4670017,28.0689655 50.2758621,28.0689655 Z M72.3448276,28.0689655 C76.1536879,28.0689655 79.2413793,31.1566569 79.2413793,34.9655172 C79.2413793,38.7743776 76.1536879,41.862069 72.3448276,41.862069 C68.5359672,41.862069 65.4482759,38.7743776 65.4482759,34.9655172 C65.4482759,31.1566569 68.5359672,28.0689655 72.3448276,28.0689655 Z" id="Shape" fill="#21BF9A" fill-rule="nonzero"></path>
                                <g id="Group-18" transform="translate(21.310345, 28.068966)"></g>
                            </g>
                        </g>
                    </g>
                    <g id="Icons-/-Maker-/-Color" transform="translate(300.000000, 0.000000)" fill="#F66767">
                        <g id="Line-5" transform="translate(32.000000, 22.000000)">
                            <path d="M112.070254,5.99614153 L112,151.655595 C111.99787,156.073872 115.577864,159.657321 119.996142,159.659453 C124.414419,159.661583 127.997868,156.081589 128,151.663311 L128.070253,6.00385851 C128.072383,1.58558103 124.492389,-1.99786806 120.074112,-2 C115.655834,-2.00213004 112.072385,1.57786404 112.070254,5.99614153 Z" id="Line-4" fill-rule="nonzero" transform="translate(120.035127, 78.829727) rotate(22.000000) translate(-120.035127, -78.829727) "></path>
                            <g id="interface-(1)" transform="translate(0.000000, 8.000000)" fill-rule="nonzero">
                                <path d="M69.0795117,0 C75.6782812,0 81.046875,5.36859375 81.046875,11.9673633 L81.046875,14.7275781 C83.8522852,15.6238672 86.5779687,16.7552734 89.1965039,18.1103711 L91.1525977,16.1542773 C95.8902344,11.4108008 103.479238,11.5499414 108.079258,16.1560547 L113.845723,21.9222656 C118.453867,26.525332 118.586406,34.1117969 113.844199,38.8489258 L111.889629,40.8034961 L114.178852,46.1927214 C114.694364,47.4063257 114.578676,48.7960247 113.869592,49.9076848 L110.490611,55.2050513 C109.724712,56.4057247 108.130498,56.7582137 106.929809,55.9923411 C106.379591,55.6413789 105.982912,55.0948454 105.819762,54.4629468 C105.819762,54.4629468 105.819762,54.4629468 105.819762,54.4629468 C104.83575,50.6499322 103.318367,46.9945585 101.310045,43.5985219 C100.483912,42.2013253 100.708639,40.4219975 101.856455,39.2741817 L105.575596,35.5550404 C107.183297,33.9492362 107.141338,31.3748291 105.577018,29.8124057 L100.189965,24.4253521 C98.6284897,22.8617435 96.0531343,22.815992 94.4473301,24.4239298 L90.7270036,28.1444933 C89.5791878,29.2925461 87.7993859,29.5172734 86.4024263,28.6909029 C83.0061527,26.6823438 79.350779,25.1649608 75.5380014,24.1809493 C73.9677553,23.7758239 72.8706691,22.359663 72.8706691,20.7379761 L72.8706691,15.4872286 C72.8706691,13.2477788 71.0484345,11.4257813 68.8089847,11.4257813 L61.1917264,11.4257813 C58.9522767,11.4257813 57.1300421,13.2477788 57.1300421,15.4872286 L57.1300421,20.737502 C57.1300421,22.3591888 56.0329559,23.7753498 54.4627097,24.1804752 C50.6499322,25.1644867 46.9945585,26.6818697 43.5982849,28.6904288 C42.2006141,29.5165622 40.4215234,29.291835 39.2737076,28.1440192 L35.5548034,24.424878 C33.9513697,22.8195478 31.3762514,22.8567653 29.8124057,24.4232186 L24.424878,29.8105093 C22.8645881,31.3689027 22.8124362,33.944021 24.4234556,35.553144 L28.1440192,39.2737076 C29.291835,40.4215234 29.5165622,42.2008512 28.6904288,43.5980478 C26.6818697,46.9940844 25.1647237,50.6494581 24.1807123,54.4624727 C23.7753498,56.0327188 22.3591888,57.129568 20.737739,57.129568 L15.4874656,57.129568 C13.2480158,57.129805 11.4257813,58.9518026 11.4257813,61.1912523 L11.4257813,68.8087477 C11.4257813,71.0481974 13.2480158,72.870195 15.4874656,72.870195 L20.737502,72.870195 C22.3591888,72.870195 23.7751128,73.9672812 24.1804752,75.5372903 C25.1644867,79.3503049 26.6818697,83.0056786 28.6901918,86.4017151 C29.5163252,87.7989118 29.2915979,89.5782396 28.1437821,90.7260554 L24.4246409,94.4451966 C22.8169402,96.0510008 22.8588988,98.625408 24.4232186,100.187831 L29.8102722,105.574885 C31.3717474,107.138494 33.9471027,107.184245 35.552907,105.576307 L39.2732335,101.855744 C40.1190424,101.010172 41.8786947,100.292609 43.5980478,101.309571 C46.9943214,103.31813 50.6496951,104.835513 54.4624727,105.819525 C56.0327188,106.22465 57.129805,107.640811 57.129805,109.262498 L57.129805,114.512771 C57.129805,116.752221 58.9520396,118.574219 61.1914894,118.574219 L68.8087477,118.574219 C71.0481974,118.574219 72.870432,116.752221 72.870432,114.512771 L72.870432,109.262498 C72.870432,107.640811 73.9675182,106.22465 75.5377644,105.819525 C79.3505419,104.835513 83.0059156,103.31813 86.4021892,101.309571 C87.7996229,100.483201 89.5787137,100.707928 90.7267665,101.855981 C91.8343751,102.963838 92.168959,104.628185 91.5755204,106.078004 L89.9848733,109.964086 C89.4802763,111.196858 88.5046319,112.177323 87.2743622,112.68799 L81.046875,115.27293 L81.046875,115.27293 L81.046875,118.033145 C81.046875,124.631406 75.6782813,130 69.0792578,130 L60.9204883,130 C54.3217187,130 48.9528711,124.631406 48.9528711,118.032637 L48.9528711,115.272422 C46.1474609,114.376133 43.4217773,113.244727 40.8032422,111.889629 L38.8471484,113.845723 C34.1095117,118.589199 26.5205078,118.450059 21.9204883,113.843945 L16.1540234,108.077734 C11.5458789,103.474668 11.4133398,95.8882031 16.1555469,91.1510742 L18.1101172,89.1965039 C16.7550195,86.5779688 15.6238672,83.852793 14.7273242,81.046875 L11.9673633,81.046875 C5.36884766,81.046875 0,75.6782813 0,69.0795117 L0,60.9204883 C0,54.3217188 5.36884766,48.953125 11.9676172,48.953125 L14.7275781,48.953125 C15.6241211,46.1474609 16.7552734,43.4220313 18.1103711,40.8034961 L16.1542773,38.8476562 C11.4148633,34.1133203 11.545625,26.5260938 16.1558008,21.9209961 L21.9227734,16.1542773 C26.533457,11.5372461 34.1206836,11.4219727 38.8491797,16.1558008 L40.8034961,18.1101172 C43.4220312,16.7552734 46.1477148,15.6238672 48.953125,14.7273242 L48.953125,11.9673633 C48.953125,5.36859375 54.3217187,0 60.9207422,0 L69.0795117,0 Z M65,36.7148437 C80.5966992,36.7148437 93.2851562,49.4035547 93.2851562,65 C93.2851562,80.5964453 80.5966992,93.2851562 65,93.2851562 C49.4033008,93.2851562 36.7148438,80.5964453 36.7148438,65 C36.7148438,49.4035547 49.4033008,36.7148437 65,36.7148437 Z M65.0209101,47.4117647 C55.3110024,47.4117647 47.4117647,55.3112187 47.4117647,65.0209101 C47.4117647,74.7306016 55.3112187,82.6300555 65.0209101,82.6300555 C74.7306016,82.6300555 82.6300555,74.7306016 82.6300555,65.0209101 C82.6300555,55.3112187 74.7308179,47.4117647 65.0209101,47.4117647 Z" id="Shape"></path>
                            </g>
                            <g id="Group-54-Copy" transform="translate(124.000000, 10.000000)" fill-rule="nonzero">
                                <path d="M4,90 L32.376601,90 C34.4853246,90 36.2129313,91.6317556 36.3656295,93.7014753 L36.376601,94 L36.3779026,110.463641 C42.3722215,112.047693 46.7913285,117.507778 46.7913285,124 C46.7913285,131.731986 40.523315,138 32.7913285,138 C25.059342,138 18.7913285,131.731986 18.7913285,124 C18.7913285,117.810864 22.8074588,112.559746 28.3758173,110.710547 L28.376601,98 L4,98 C1.790861,98 4.54747351e-13,96.209139 4.54747351e-13,94 C4.54747351e-13,91.8912764 1.63175558,90.1636698 3.70147531,90.0109715 L4,90 L32.376601,90 L4,90 Z M32.7913285,118 C29.47762,118 26.7913285,120.686292 26.7913285,124 C26.7913285,127.313708 29.47762,130 32.7913285,130 C36.105037,130 38.7913285,127.313708 38.7913285,124 C38.7913285,120.686292 36.105037,118 32.7913285,118 Z M12.65571,72 L39.5852725,72 C40.2529564,72 40.9081875,72.1671027 41.4920587,72.4837257 L41.7777748,72.6544158 L65.9873341,88.5182237 C68.2573944,86.9310884 71.0199635,86 74,86 C81.7319865,86 88,92.2680135 88,100 C88,107.731986 81.7319865,114 74,114 C66.2680135,114 60,107.731986 60,100 C60,98.1670123 60.3522629,96.4163 60.9927839,94.8118678 L38.3913567,80 L12.65571,80 C10.446571,80 8.65571002,78.209139 8.65571002,76 C8.65571002,73.8912764 10.2874656,72.1636698 12.3571853,72.0109715 L12.65571,72 L39.5852725,72 L12.65571,72 Z M74,94 C70.6862915,94 68,96.6862915 68,100 C68,103.313708 70.6862915,106 74,106 C77.3137085,106 80,103.313708 80,100 C80,96.6862915 77.3137085,94 74,94 Z M100,46 C107.731986,46 114,52.2680135 114,60 C114,67.7319865 107.731986,74 100,74 C93.6587215,74 88.3021443,69.7839922 86.5803785,64.0020865 L22.2310509,64 C20.0219119,64 18.2310509,62.209139 18.2310509,60 C18.2310509,57.8912764 19.8628065,56.1636698 21.9325262,56.0109715 L22.2310509,56 L86.5797849,55.9999073 C88.300913,50.2169771 93.6579926,46 100,46 Z M100,54 C96.6862915,54 94,56.6862915 94,60 C94,63.3137085 96.6862915,66 100,66 C103.313708,66 106,63.3137085 106,60 C106,56.6862915 103.313708,54 100,54 Z M74,0 C81.7319865,0 88,6.2680135 88,14 C88,21.0043355 82.856229,26.8072788 76.1400518,27.8374653 L67.1629813,45.7897306 C66.4854132,47.1448667 65.1003608,48.0008762 63.5852725,48.0008762 L28.5081756,48.0008762 C26.2990366,48.0008762 24.5081756,46.2100152 24.5081756,44.0008762 C24.5081756,41.7917372 26.2990366,40.0008762 28.5081756,40.0008762 L61.1131366,40.0008762 L67.8286431,26.5698962 C63.1913071,24.2888193 60,19.5170945 60,14 C60,6.2680135 66.2680135,0 74,0 Z M74,8 C70.6862915,8 68,10.6862915 68,14 C68,17.3137085 70.6862915,20 74,20 C77.3137085,20 80,17.3137085 80,14 C80,10.6862915 77.3137085,8 74,8 Z" id="Shape"></path>
                            </g>
                        </g>
                    </g>
                </g>
            </g>
        </g>
    </g>
</svg>