<?xml version="1.0" encoding="UTF-8"?>
<svg width="390px" height="105px" viewBox="0 0 390 105" version="1.1" xmlns="http://www.w3.org/2000/svg" xmlns:xlink="http://www.w3.org/1999/xlink">
    <!-- Generator: Sketch 59 (86127) - https://sketch.com -->
    <title>Icons / Logo (White)</title>
    <desc>Created with Sketch.</desc>
    <g id="Icons-/-Logo-(White)" stroke="none" stroke-width="1" fill="none" fill-rule="evenodd">
        <g id="Group-2-Copy" transform="translate(4.000000, 1.000000)" fill="#FFFFFF" fill-rule="nonzero">
            <path d="M1.77777778,0.555555556 C2.22222444,0.555555556 2.62036861,0.722220556 2.97222222,1.05555556 C3.32407583,1.38889056 3.5,1.79629389 3.5,2.27777778 L3.5,37.7222222 C3.46296278,38.2037061 3.26852028,38.6111094 2.91666667,38.9444444 C2.56481306,39.2777794 2.16666889,39.4444444 1.72222222,39.4444444 C1.20370111,39.4444444 0.787038611,39.2777794 0.472222222,38.9444444 C0.157405833,38.6111094 0,38.2037061 0,37.7222222 L0,2.27777778 C0,1.79629389 0.166665,1.38889056 0.5,1.05555556 C0.833335,0.722220556 1.25925667,0.555555556 1.77777778,0.555555556 Z M27.8333333,0.555555556 C28.3518544,0.555555556 28.7685169,0.722220556 29.0833333,1.05555556 C29.3981497,1.38889056 29.5555556,1.79629389 29.5555556,2.27777778 L29.5555556,37.7222222 C29.5185183,38.2037061 29.3425942,38.6111094 29.0277778,38.9444444 C28.7129614,39.2777794 28.2962989,39.4444444 27.7777778,39.4444444 C27.2962939,39.4444444 26.8888906,39.2777794 26.5555556,38.9444444 C26.2222206,38.6111094 26.0555556,38.2037061 26.0555556,37.7222222 L26.0555556,2.27777778 C26.0555556,1.79629389 26.2314797,1.38889056 26.5833333,1.05555556 C26.9351869,0.722220556 27.3518494,0.555555556 27.8333333,0.555555556 Z M1.5,17.9444444 L27.8888889,17.9444444 L27.8333333,21.1666667 L1.27777778,21.1666667 L1.5,17.9444444 Z M67.4861111,0.555555556 C68.0046322,0.555555556 68.4120356,0.712961389 68.7083333,1.02777778 C69.0046311,1.34259417 69.1527778,1.74073833 69.1527778,2.22222222 L69.1527778,25.2222222 C69.1527778,27.9629767 68.5046361,30.4444333 67.2083333,32.6666667 C65.9120306,34.8889 64.1713072,36.6574008 61.9861111,37.9722222 C59.800915,39.2870436 57.3379767,39.9444444 54.5972222,39.9444444 C51.8564678,39.9444444 49.3842703,39.2870436 47.1805556,37.9722222 C44.9768408,36.6574008 43.2268583,34.8889 41.9305556,32.6666667 C40.6342528,30.4444333 39.9861111,27.9629767 39.9861111,25.2222222 L39.9861111,2.22222222 C39.9861111,1.74073833 40.1435169,1.34259417 40.4583333,1.02777778 C40.7731497,0.712961389 41.2083306,0.555555556 41.7638889,0.555555556 C42.2083356,0.555555556 42.5972206,0.712961389 42.9305556,1.02777778 C43.2638906,1.34259417 43.4305556,1.74073833 43.4305556,2.22222222 L43.4305556,25.2222222 C43.4305556,27.3703811 43.9398097,29.2962878 44.9583333,31 C45.9768569,32.7037122 47.3379544,34.0648097 49.0416667,35.0833333 C50.7453789,36.1018569 52.5972122,36.6111111 54.5972222,36.6111111 C56.6713067,36.6111111 58.5601767,36.1018569 60.2638889,35.0833333 C61.9676011,34.0648097 63.3286986,32.7037122 64.3472222,31 C65.3657458,29.2962878 65.875,27.3703811 65.875,25.2222222 L65.875,2.22222222 C65.875,1.74073833 66.0231467,1.34259417 66.3194444,1.02777778 C66.6157422,0.712961389 67.0046272,0.555555556 67.4861111,0.555555556 Z M106.125,34.1798118 L106.125,23.1666667 L97.3472222,23.1666667 C96.8657383,23.1666667 96.458335,23 96.125,22.6666667 C95.791665,22.3333317 95.625,21.9444467 95.625,21.5 C95.625,20.9814789 95.791665,20.5740756 96.125,20.2777778 C96.458335,19.98148 96.8657383,19.8333333 97.3472222,19.8333333 L107.958333,19.8333333 C108.439817,19.8333333 108.837961,19.9907392 109.152778,20.3055556 C109.467594,20.6203719 109.625,21.0185161 109.625,21.5 L109.625,34.8888889 C109.625,35.1851867 109.550927,35.4629617 109.402778,35.7222222 C109.254629,35.9814828 109.050927,36.2037028 108.791667,36.3888889 C107.162029,37.5 105.337973,38.3796264 103.319444,39.0277778 C101.300916,39.6759292 99.199085,40 97.0138889,40 C94.1620228,40 91.5139011,39.5 89.0694444,38.5 C86.6249878,37.5 84.5046386,36.1018608 82.7083333,34.3055556 C80.9120281,32.5092503 79.5138889,30.3889011 78.5138889,27.9444444 C77.5138889,25.4999878 77.0138889,22.8518661 77.0138889,20 C77.0138889,17.1481339 77.5138889,14.5000122 78.5138889,12.0555556 C79.5138889,9.61109889 80.9120281,7.49074972 82.7083333,5.69444444 C84.5046386,3.89813917 86.6249878,2.5 89.0694444,1.5 C91.5139011,0.5 94.1620228,0 97.0138889,0 C98.9768617,0 100.874991,0.231479167 102.708333,0.694444444 C104.541676,1.15740741 106.180548,1.85184722 107.625,2.77777778 C107.884261,2.96296389 108.078703,3.17592472 108.208333,3.41666667 C108.337964,3.65740861 108.402778,3.90740611 108.402778,4.16666667 C108.402778,4.68518778 108.236113,5.10185028 107.902778,5.41666667 C107.569443,5.73148306 107.217594,5.88888889 106.847222,5.88888889 C106.662036,5.88888889 106.486112,5.86111139 106.319444,5.80555556 C106.152777,5.74999972 105.995371,5.68518556 105.847222,5.61111111 C104.587957,4.90740389 103.2176,4.35185389 101.736111,3.94444444 C100.254622,3.537035 98.6805639,3.33333333 97.0138889,3.33333333 C93.8286878,3.33333333 90.9953828,4.05554833 88.5138889,5.5 C86.032395,6.94444444 84.08797,8.92591333 82.6805556,11.4444444 C81.2731411,13.9629756 80.5694444,16.8147989 80.5694444,20 C80.5694444,23.1852011 81.2731411,26.0370244 82.6805556,28.5555556 C84.08797,31.0740867 86.032395,33.0555483 88.5138889,34.5 C90.9953828,35.9444517 93.8286878,36.6666667 97.0138889,36.6666667 C98.6805639,36.6666667 100.356473,36.4259283 102.041667,35.9444444 C103.341091,35.5731804 104.502869,35.1028269 105.527023,34.5333748 L106.125,34.1798118 L106.125,34.1798118 Z M134.208333,0 C136.912051,0 139.402766,0.490735833 141.680556,1.47222222 C143.958345,2.45370861 145.930547,3.84258361 147.597222,5.63888889 C149.263897,7.43519417 150.550921,9.54628417 151.458333,11.9722222 C152.365745,14.3981603 152.819444,17.0740594 152.819444,20 C152.819444,22.9259406 152.365745,25.6018397 151.458333,28.0277778 C150.550921,30.4537158 149.263897,32.5648058 147.597222,34.3611111 C145.930547,36.1574164 143.958345,37.5462914 141.680556,38.5277778 C139.402766,39.5092642 136.912051,40 134.208333,40 C131.504616,40 129.0139,39.5092642 126.736111,38.5277778 C124.458322,37.5462914 122.486119,36.1574164 120.819444,34.3611111 C119.152769,32.5648058 117.865745,30.4537158 116.958333,28.0277778 C116.050921,25.6018397 115.597222,22.9259406 115.597222,20 C115.597222,17.0740594 116.050921,14.3981603 116.958333,11.9722222 C117.865745,9.54628417 119.152769,7.43519417 120.819444,5.63888889 C122.486119,3.84258361 124.458322,2.45370861 126.736111,1.47222222 C129.0139,0.490735833 131.504616,0 134.208333,0 Z M134.208333,3.33333333 C131.282393,3.33333333 128.680567,4.03703 126.402778,5.44444444 C124.124989,6.85185889 122.347229,8.80554306 121.069444,11.3055556 C119.79166,13.8055681 119.152778,16.7036872 119.152778,20 C119.152778,23.2963128 119.79166,26.1944319 121.069444,28.6944444 C122.347229,31.1944569 124.124989,33.1481411 126.402778,34.5555556 C128.680567,35.96297 131.282393,36.6666667 134.208333,36.6666667 C137.171311,36.6666667 139.782396,35.96297 142.041667,34.5555556 C144.300937,33.1481411 146.069438,31.1944569 147.347222,28.6944444 C148.625006,26.1944319 149.263889,23.2963128 149.263889,20 C149.263889,16.7036872 148.625006,13.8055681 147.347222,11.3055556 C146.069438,8.80554306 144.300937,6.85185889 142.041667,5.44444444 C139.782396,4.03703 137.171311,3.33333333 134.208333,3.33333333 Z" id="HUGO"></path>
            <path d="M176.9437,102.997863 C174.129021,103.034899 171.684732,102.590482 169.610758,101.664601 C167.536784,100.73872 165.555428,99.3499193 163.666631,97.4981571 C163.481455,97.3500161 163.324057,97.1648427 163.194434,96.9426312 C163.064811,96.7204198 163,96.461177 163,96.164895 C163,95.7204721 163.175915,95.3130905 163.52775,94.9427381 C163.879584,94.5723856 164.277707,94.3872122 164.72213,94.3872122 C165.166553,94.3872122 165.573935,94.5723856 165.944287,94.9427381 C167.388662,96.4982183 169.027447,97.6833283 170.860691,98.4981037 C172.693936,99.3128791 174.666033,99.7202606 176.777042,99.7202606 C178.554734,99.7202606 180.137966,99.4425005 181.526788,98.8869718 C182.91561,98.3314432 184.017392,97.5351974 184.832167,96.4982105 C185.646942,95.4612237 186.054324,94.2575963 186.054324,92.8872923 C186.054324,91.1836711 185.59139,89.804129 184.665509,88.7486245 C183.739628,87.6931201 182.517483,86.8228049 180.999038,86.1376529 C179.784282,85.5895313 178.462881,85.0828951 177.034809,84.6177348 L175.943753,84.2766412 C174.425308,83.8322205 172.980955,83.3229913 171.610651,82.748945 C170.240347,82.1748987 169.018202,81.4712397 167.94418,80.6379467 C166.870158,79.8046537 166.036878,78.7769411 165.444314,77.554778 C164.85175,76.332615 164.555472,74.8512275 164.555472,73.110571 C164.555472,71.1477031 165.073958,69.4070727 166.110945,67.8886277 C167.147932,66.3701827 168.620061,65.175814 170.527376,64.3054858 C172.434691,63.4351576 174.647513,63 177.16591,63 C179.350989,63 181.452708,63.3703469 183.471129,64.1110518 C185.26528,64.7694561 186.730211,65.7058404 187.865954,66.9202278 L188.276428,67.3886544 C188.831956,67.9812183 189.109716,68.5182213 189.109716,68.9996795 C189.109716,69.3700319 188.924543,69.7403788 188.55419,70.1107313 C188.183838,70.4810837 187.776456,70.6662571 187.332034,70.6662571 C186.961681,70.6662571 186.646886,70.5366357 186.38764,70.277389 C185.75804,69.4996489 184.961795,68.8052485 183.998878,68.194167 C183.035962,67.5830855 181.971215,67.1108932 180.804604,66.777576 C179.637994,66.4442588 178.425108,66.2776027 177.16591,66.2776027 C175.425253,66.2776027 173.860538,66.5461042 172.471716,67.0831152 C171.082895,67.6201262 169.990371,68.388596 169.194114,69.3885476 C168.397856,70.3884992 167.999733,71.5921266 167.999733,72.9994658 C167.999733,74.5549461 168.444149,75.8326428 169.332995,76.8325944 C170.221841,77.832546 171.388434,78.6565678 172.832808,79.3046846 C174.277183,79.9528013 175.814122,80.554615 177.443673,81.1101437 C179.036188,81.5545666 180.563869,82.0637936 182.026761,82.6378398 C183.489654,83.2118861 184.785868,83.9248039 185.915443,84.7766145 C187.045017,85.6284251 187.93385,86.702431 188.581967,87.9986646 C189.230084,89.2948981 189.554137,90.9244244 189.554137,92.8872923 C189.554137,94.7760898 189.017134,96.4796854 187.943112,97.9981304 C186.86909,99.5165754 185.396961,100.720203 183.526681,101.609049 C181.656401,102.497894 179.462096,102.960828 176.9437,102.997863 Z M225.816089,66.4442605 C226.260512,66.7405424 226.519755,67.120148 226.593825,67.5830885 C226.667896,68.0460291 226.556791,68.499704 226.26051,68.9441269 C226.001263,69.2774441 225.667951,69.4626175 225.260563,69.4996528 C224.853175,69.536688 224.464311,69.4626187 224.093959,69.2774424 C222.686619,68.3515613 221.177456,67.6293849 219.566423,67.1108915 C217.95539,66.5923981 216.224018,66.3331553 214.372256,66.3331553 C212.113106,66.3331553 210.011387,66.7312782 208.067037,67.5275359 C206.122687,68.3237937 204.42835,69.471869 202.983975,70.9717964 C201.539601,72.4717237 200.419301,74.2401301 199.623044,76.2770685 C198.826786,78.3140069 198.428663,80.5546056 198.428663,82.9989317 C198.428663,85.5173282 198.836045,87.8042202 199.65082,89.8596763 C200.465595,91.9151323 201.604412,93.6835387 203.067304,95.1649484 C204.530196,96.6463582 206.224533,97.7759201 208.150366,98.5536563 C210.076199,99.3313964 212.150141,99.7202606 214.372256,99.7202606 C216.186983,99.7202606 217.899837,99.4610178 219.51087,98.9425244 C221.121903,98.424031 222.631067,97.7203719 224.038406,96.8315261 C224.408758,96.6093146 224.806881,96.5259865 225.232787,96.5815394 C225.658692,96.6370923 226.001263,96.8500417 226.26051,97.2203942 C226.593827,97.6277819 226.714189,98.0629394 226.621601,98.52588 C226.529013,98.9888205 226.279029,99.3499088 225.871641,99.6091555 C224.94576,100.201719 223.853237,100.75724 222.594039,101.275733 C221.33484,101.794227 220.001592,102.210867 218.594252,102.525666 C217.186913,102.840466 215.779595,102.997863 214.372256,102.997863 C211.705718,102.997863 209.205877,102.516412 206.872656,101.553496 C204.539436,100.59058 202.465493,99.2295549 200.650766,97.4703808 C198.83604,95.7112067 197.419463,93.6094882 196.400994,91.1651621 C195.382524,88.720836 194.873297,85.9987864 194.873297,82.9989317 C194.873297,80.1101826 195.373266,77.4529438 196.373217,75.0271353 C197.373169,72.6013268 198.76197,70.4996083 200.539661,68.7219166 C202.317353,66.9442249 204.391296,65.555424 206.761551,64.5554725 C209.131807,63.5555209 211.668683,63.0555526 214.372256,63.0555526 C216.483265,63.0555526 218.520172,63.3518301 220.48304,63.944394 C222.445908,64.5369579 224.223573,65.3702438 225.816089,66.4442605 Z M235.496127,63.5555259 C235.94055,63.5555259 236.338673,63.722182 236.690508,64.0554992 C237.042343,64.3888164 237.218257,64.7961979 237.218257,65.2776561 L237.218257,100.720207 C237.181222,101.201665 236.98679,101.609047 236.634955,101.942364 C236.283121,102.275681 235.884998,102.442337 235.440575,102.442337 C234.922081,102.442337 234.505441,102.275681 234.190641,101.942364 C233.875842,101.609047 233.718444,101.201665 233.718444,100.720207 L233.718444,65.2776561 C233.718444,64.7961979 233.885101,64.3888164 234.218418,64.0554992 C234.551735,63.722182 234.977634,63.5555259 235.496127,63.5555259 Z M261.550291,63.5555259 C262.068784,63.5555259 262.485425,63.722182 262.800224,64.0554992 C263.115024,64.3888164 263.272421,64.7961979 263.272421,65.2776561 L263.272421,100.720207 C263.235386,101.201665 263.059471,101.609047 262.744672,101.942364 C262.429872,102.275681 262.013232,102.442337 261.494738,102.442337 C261.01328,102.442337 260.605899,102.275681 260.272581,101.942364 C259.939264,101.609047 259.772608,101.201665 259.772608,100.720207 L259.772608,65.2776561 C259.772608,64.7961979 259.948523,64.3888164 260.300358,64.0554992 C260.652193,63.722182 261.068833,63.5555259 261.550291,63.5555259 Z M235.218364,80.9434859 L261.605844,80.9434859 L261.550291,84.165536 L234.996154,84.165536 L235.218364,80.9434859 Z M308.367235,82.9989317 C308.367235,85.9247159 307.91356,88.6004722 307.006196,91.0262806 C306.098833,93.4520891 304.811877,95.5630663 303.145291,97.3592756 C301.478705,99.155485 299.506608,100.544286 297.228941,101.52572 C294.951273,102.507154 292.46069,102.997863 289.757118,102.997863 C287.053545,102.997863 284.562962,102.507154 282.285294,101.52572 C280.007627,100.544286 278.03553,99.155485 276.368944,97.3592756 C274.702358,95.5630663 273.415402,93.4520891 272.508039,91.0262806 C271.600676,88.6004722 271.147001,85.9247159 271.147001,82.9989317 C271.147001,80.0731474 271.600676,77.3973912 272.508039,74.9715827 C273.415402,72.5457742 274.702358,70.434797 276.368944,68.6385877 C278.03553,66.8423784 280.007627,65.4535775 282.285294,64.4721436 C284.562962,63.4907096 287.053545,63 289.757118,63 C292.46069,63 294.951273,63.4907096 297.228941,64.4721436 C299.506608,65.4535775 301.478705,66.8423784 303.145291,68.6385877 C304.811877,70.434797 306.098833,72.5457742 307.006196,74.9715827 C307.91356,77.3973912 308.367235,80.0731474 308.367235,82.9989317 Z M304.811869,82.9989317 C304.811869,79.702795 304.173021,76.8048306 302.895305,74.3049516 C301.617589,71.8050727 299.849182,69.8514929 297.590032,68.4441536 C295.330883,67.0368144 292.719937,66.3331553 289.757118,66.3331553 C286.831333,66.3331553 284.229646,67.0368144 281.951979,68.4441536 C279.674311,69.8514929 277.896646,71.8050727 276.618931,74.3049516 C275.341215,76.8048306 274.702366,79.702795 274.702366,82.9989317 C274.702366,86.2950684 275.341215,89.1930327 276.618931,91.6929117 C277.896646,94.1927906 279.674311,96.1463704 281.951979,97.5537097 C284.229646,98.961049 286.831333,99.664708 289.757118,99.664708 C292.719937,99.664708 295.330883,98.961049 297.590032,97.5537097 C299.849182,96.1463704 301.617589,94.1927906 302.895305,91.6929117 C304.173021,89.1930327 304.811869,86.2950684 304.811869,82.9989317 Z M344.629186,66.4442605 C345.073609,66.7405424 345.332852,67.120148 345.406923,67.5830885 C345.480993,68.0460291 345.369889,68.499704 345.073607,68.9441269 C344.81436,69.2774441 344.481048,69.4626175 344.07366,69.4996528 C343.666273,69.536688 343.277409,69.4626187 342.907056,69.2774424 C341.499717,68.3515613 339.990553,67.6293849 338.37952,67.1108915 C336.768487,66.5923981 335.037115,66.3331553 333.185353,66.3331553 C330.926203,66.3331553 328.824485,66.7312782 326.880134,67.5275359 C324.935784,68.3237937 323.241447,69.471869 321.797073,70.9717964 C320.352698,72.4717237 319.232399,74.2401301 318.436141,76.2770685 C317.639883,78.3140069 317.24176,80.5546056 317.24176,82.9989317 C317.24176,85.5173282 317.649142,87.8042202 318.463917,89.8596763 C319.278693,91.9151323 320.417509,93.6835387 321.880402,95.1649484 C323.343294,96.6463582 325.037631,97.7759201 326.963463,98.5536563 C328.889296,99.3313964 330.963239,99.7202606 333.185353,99.7202606 C335.00008,99.7202606 336.712934,99.4610178 338.323968,98.9425244 C339.935001,98.424031 341.444164,97.7203719 342.851503,96.8315261 C343.221856,96.6093146 343.619979,96.5259865 344.045884,96.5815394 C344.471789,96.6370923 344.81436,96.8500417 345.073607,97.2203942 C345.406924,97.6277819 345.527287,98.0629394 345.434699,98.52588 C345.342111,98.9888205 345.092127,99.3499088 344.684739,99.6091555 C343.758858,100.201719 342.666334,100.75724 341.407136,101.275733 C340.147938,101.794227 338.814689,102.210867 337.40735,102.525666 C336.000011,102.840466 334.592692,102.997863 333.185353,102.997863 C330.518816,102.997863 328.018974,102.516412 325.685754,101.553496 C323.352533,100.59058 321.278591,99.2295549 319.463864,97.4703808 C317.649137,95.7112067 316.23256,93.6094882 315.214091,91.1651621 C314.195622,88.720836 313.686395,85.9987864 313.686395,82.9989317 C313.686395,80.1101826 314.186363,77.4529438 315.186315,75.0271353 C316.186266,72.6013268 317.575067,70.4996083 319.352759,68.7219166 C321.13045,66.9442249 323.204393,65.555424 325.574649,64.5554725 C327.944904,63.5555209 330.48178,63.0555526 333.185353,63.0555526 C335.296362,63.0555526 337.33327,63.3518301 339.296138,63.944394 C341.259006,64.5369579 343.036671,65.3702438 344.629186,66.4442605 Z M354.309225,63.5555259 C354.753648,63.5555259 355.151771,63.722182 355.503605,64.0554992 C355.85544,64.3888164 356.031355,64.7961979 356.031355,65.2776561 L356.031355,100.720207 C355.99432,101.201665 355.799888,101.609047 355.448053,101.942364 C355.096218,102.275681 354.698095,102.442337 354.253672,102.442337 C353.735179,102.442337 353.318539,102.275681 353.003739,101.942364 C352.688939,101.609047 352.531542,101.201665 352.531542,100.720207 L352.531542,65.2776561 C352.531542,64.7961979 352.698198,64.3888164 353.031515,64.0554992 C353.364832,63.722182 353.790731,63.5555259 354.309225,63.5555259 Z M380.363388,63.5555259 C380.881882,63.5555259 381.298522,63.722182 381.613322,64.0554992 C381.928121,64.3888164 382.085519,64.7961979 382.085519,65.2776561 L382.085519,100.720207 C382.048483,101.201665 381.872569,101.609047 381.557769,101.942364 C381.24297,102.275681 380.826329,102.442337 380.307836,102.442337 C379.826378,102.442337 379.418996,102.275681 379.085679,101.942364 C378.752362,101.609047 378.585706,101.201665 378.585706,100.720207 L378.585706,65.2776561 C378.585706,64.7961979 378.76162,64.3888164 379.113455,64.0554992 C379.46529,63.722182 379.88193,63.5555259 380.363388,63.5555259 Z M354.031462,80.9434859 L380.418941,80.9434859 L380.363388,84.165536 L353.809251,84.165536 L354.031462,80.9434859 Z" id="HUGOSCHOCH"></path>
            <g id="Icons-/-_Res-/-Slash-(White)" transform="translate(134.000000, 0.000000)">
                <path d="M20.5,2 L20.5,102 C20.5,104.209139 22.290861,106 24.5,106 C26.709139,106 28.5,104.209139 28.5,102 L28.5,2 C28.5,-0.209138999 26.709139,-2 24.5,-2 C22.290861,-2 20.5,-0.209138999 20.5,2 Z" id="Line-4" transform="translate(24.500000, 52.000000) rotate(22.000000) translate(-24.500000, -52.000000) "></path>
            </g>
        </g>
    </g>
</svg>
